<?xml version="1.0" standalone="no"?>
<!DOCTYPE svg PUBLIC "-//W3C//DTD SVG 1.1//EN" "http://www.w3.org/Graphics/SVG/1.1/DTD/svg11.dtd" >
<!--
2013-9-30: Created.
-->
<svg>
<metadata>
Created by iconfont
</metadata>
<defs>

<font id="iconfont" horiz-adv-x="1024" >
  <font-face
    font-family="iconfont"
    font-weight="500"
    font-stretch="normal"
    units-per-em="1024"
    ascent="896"
    descent="-128"
  />
    <missing-glyph />
    
    <glyph glyph-name="Supplier" unicode="&#59424;" d="M427.008 354.816c0-10.24-4.096-17.408-11.264-23.04l32.768-198.144c3.072-10.24 0-20.48-7.168-27.648l-38.912-39.424c-5.12-5.632-13.824-5.632-19.456-0.512l-0.512 0.512-38.912 39.424c-7.168 7.168-10.24 17.408-7.168 27.648l32.768 198.144c-7.168 5.632-11.776 13.312-11.776 23.04 0 6.144 2.048 11.776 5.12 16.384-135.68-8.704-256-91.648-313.344-225.28-19.968-46.592-30.208-96.768-30.208-146.944 0-20.48 16.896-37.376 37.376-37.376l483.328-0.512v380.928c-40.448 17.408-76.288 27.136-117.76 29.696 3.072-5.12 5.12-10.752 5.12-16.896zM392.192 609.28m-197.632 0a197.632 197.632 0 1 1 395.264 0 197.632 197.632 0 1 1-395.264 0ZM1047.04 431.104c-7.68 9.728-19.456 15.872-31.744 15.872h-152.576v-101.376H1095.68l-48.64 85.504zM841.728 446.976h-152.576c-12.8 0-24.064-5.632-31.744-15.872l-48.64-85.504h232.96V446.976zM609.28 325.12v-344.064c0-11.264 9.216-20.48 20.48-20.48h445.44c11.264 0 20.48 9.216 20.48 20.48v344.064h-486.4z m162.816-329.728h-44.544v150.016c-4.608-5.632-9.216-10.752-13.312-15.36-4.096 11.264-16.384 36.352-23.552 47.616 26.624 27.136 52.736 70.144 67.584 113.152l42.496-13.312c-7.68-20.992-17.92-42.496-28.672-62.976v-219.136z m40.96 1.536c-8.192 8.192-25.088 22.016-35.328 28.16 22.528 13.824 44.544 35.84 56.832 57.344l42.496-13.312c-15.872-27.648-41.472-55.296-64-72.192z m138.24-1.024c-9.216 18.432-30.72 46.592-49.664 67.072l36.352 19.968c19.456-19.456 40.448-45.056 51.2-62.976l-37.888-24.064z m38.912 96.256h-203.264v44.032h38.4v53.76h-31.232v43.52h31.232v55.808h44.032v-55.808h36.352v56.32h44.032v-56.32h37.888v-43.52h-37.888v-53.76h39.936v-44.032zM869.888 189.952h36.352v-53.76h-36.352z"  horiz-adv-x="1108" />

    
    <glyph glyph-name="gonghuoshang" unicode="&#59423;" d="M810.496 832H213.504c-82.432 0-148.992-67.072-149.504-149.504v-597.504c0-82.432 67.072-148.992 149.504-149.504h597.504c82.432 0 148.992 67.072 149.504 149.504V682.496c-0.512 82.432-67.584 149.504-150.016 149.504zM512 48.128c-63.488 0-119.296 18.432-171.52 45.056l-152.576-28.16 40.448 136.192C194.56 253.44 176.128 316.928 176.128 384c0 186.88 149.504 335.872 335.872 335.872s335.872-149.504 335.872-335.872-148.992-335.872-335.872-335.872zM346.112 367.104l-11.264 45.056c37.376 40.96 67.072 93.184 86.016 149.504l37.376-18.432c-11.264-29.696-22.528-55.808-37.376-81.92v-253.952h-40.96V400.896c-11.776-7.68-23.04-18.944-33.792-33.792z m148.992 115.712V557.568h40.96v-74.752h55.808V557.568h40.96v-74.752h44.544V445.44h-44.544v-74.752h55.808v-37.376H439.296v37.376h55.808V445.44H450.56v37.376h44.544z m48.64-179.2c-18.432-37.376-40.96-71.168-67.072-97.28l-37.376 26.112c26.624 26.624 49.152 56.832 67.072 89.6l37.376-18.432z m48.64 63.488V441.856h-55.808v-74.752h55.808z m93.184-134.144l-33.792-26.112c-14.848 29.696-37.376 59.904-67.072 97.28l33.792 18.432c23.04-29.696 45.056-59.392 67.072-89.6z"  horiz-adv-x="1024" />

    
    <glyph glyph-name="daoru" unicode="&#58928;" d="M653.8 286.8c-12.8-11.8-34.3-11.9-47.9-0.1l-60.6 56V43c0-17.6-15.4-31.9-34.2-31.9-18.8 0-34.2 14.3-34.2 31.9V337.5l-60-55.7c-14.6-12.1-34.3-11.8-48.1-0.5-6.8 6.3-10.4 14.3-10.5 22.7-0.1 8.8 3.4 17 9.8 23.2l145.2 134 140-129.3c6.7-5.2 10.8-13.2 11-21.7 0.3-8.8-3.7-17.3-10.5-23.4z m246.6-126.1c-38.7-41.6-90.3-64.5-145.4-64.5h-57.7c-18.8 0-34.1 15.8-34.1 35.1 0 19.4 15.3 35.1 34.1 35.1H755c36.3 0 70.1 15.3 95.4 42.9 25.8 28.2 40.1 65.8 40.1 105.6 0 81.9-61 148.5-135.9 148.5h-32l-4.2 30c-15.1 110.2-103.9 193.4-206.8 193.4-102.8 0-191.7-83.2-206.7-193.4l-4.2-30h-32.1c-35.9 0-69.9-15.3-95.5-43-25.8-28.2-40-65.7-40-105.5 0-81.8 61-148.5 136-148.5h57.7c18.8 0 34.2-15.7 34.2-35.1 0-19.3-15.4-35.1-34.2-35.1H269c-112.7 0-204.4 98-204.4 218.7 0 58 21 112.6 59 153.7 31.4 34.3 73.5 56.6 118.7 62.7 30.5 131 143.3 225.6 269.2 225.6s238.7-94.7 269.3-225.6c47.4-6.5 91.2-30.8 123.9-68.5 35-40.5 54.4-93 54.6-148 0-58.3-20.9-113-58.9-154.1z"  horiz-adv-x="1024" />

    
    <glyph glyph-name="quyudaili" unicode="&#59421;" d="M756.224 526.336c-124.416 0-224.768-93.696-224.768-208.384 0-165.376 193.536-325.632 202.24-332.288 6.656-5.12 14.848-8.192 22.528-8.192 8.192 0 15.872 2.56 22.528 8.192 8.192 6.656 202.24 166.912 202.24 332.288-0.512 114.688-101.376 208.384-224.768 208.384z m0-298.496c-50.688 0-91.648 40.96-91.648 91.648s40.96 91.648 91.648 91.648c50.688 0 91.648-40.96 91.648-91.648s-41.472-91.648-91.648-91.648z m-186.368-161.792c-65.536 81.408-100.864 159.744-105.472 232.96-6.144 0.512-11.776 0.512-17.92 0.512H307.2c-151.04 0-264.192-122.368-264.192-276.992 0-26.112 11.776-45.568 37.888-45.568h572.928c-21.504 19.968-53.248 51.2-83.968 89.088z m39.424 470.016c1.536 10.24 2.048 20.48 2.048 30.72 0 124.928-100.352 223.744-224.768 223.744s-225.28-98.816-225.28-223.744 100.352-224.768 224.768-224.768c28.672 0 56.32 5.12 80.896 14.848C481.28 435.2 535.552 501.248 609.28 536.0640000000001z"  horiz-adv-x="1024" />

    
    <glyph glyph-name="yingyong2" unicode="&#59420;" d="M448.11433 426.496H230.51433C102.51433 426.496-3.98167 532.992 0.11433 660.992 0.11433 788.992 106.61033 895.488 234.61033 891.392c128 0 230.4-106.496 230.4-230.4v-217.6c0-8.192-8.192-16.896-16.896-16.896zM572.01833 426.496h217.6c128 0 234.496 106.496 230.4 234.496s-102.4 239.104-230.4 234.496c-128 0-230.4-106.496-230.4-230.4v-217.6c-4.608-12.288 4.096-20.992 12.8-20.992zM448.11433 341.504H230.51433c-128 0-234.496-106.496-230.4-234.496 0-128 106.496-234.496 234.496-230.4 128 0 230.4 106.496 230.4 230.4v217.6c0 8.192-8.192 16.896-16.896 16.896zM572.01833 341.504h217.6c128 0 234.496-106.496 230.4-234.496s-106.496-234.496-234.496-230.4c-128 0-230.4 106.496-230.4 230.4v217.6c-0.512 8.192 8.192 16.896 16.896 16.896z"  horiz-adv-x="1024" />

    
    <glyph glyph-name="dianchi" unicode="&#59416;" d="M128 213.333h725.333V554.667H128v-341.334z m810.667 256v85.334c0 46.933-38.4 85.333-85.334 85.333H128c-46.933 0-85.333-38.4-85.333-85.333v-341.334C42.667 166.4 81.067 128 128 128h725.333c46.934 0 85.334 38.4 85.334 85.333v85.334c23.466 0 42.666 19.2 42.666 42.666v85.334c0 23.466-19.2 42.666-42.666 42.666zM896 426.667v-213.334c0-23.466-19.2-42.666-42.667-42.666H128c-23.467 0-42.667 19.2-42.667 42.666V554.667c0 23.466 19.2 42.666 42.667 42.666h725.333c23.467 0 42.667-19.2 42.667-42.666v-128z"  horiz-adv-x="1024" />

    
    <glyph glyph-name="weibiaoti-" unicode="&#59417;" d="M96 448m-80 0a80 80 0 1 1 160 0 80 80 0 1 1-160 0ZM304 448m-80 0a80 80 0 1 1 160 0 80 80 0 1 1-160 0ZM512 448m-80 0a80 80 0 1 1 160 0 80 80 0 1 1-160 0ZM720 448m-80 0a80 80 0 1 1 160 0 80 80 0 1 1-160 0ZM928 448m-80 0a80 80 0 1 1 160 0 80 80 0 1 1-160 0Z"  horiz-adv-x="1024" />

    
    <glyph glyph-name="xinhao" unicode="&#59418;" d="M102 486.458c-10.237 0-20.474 3.905-28.284 11.716-15.621 15.621-15.621 40.947 0 56.568 59.201 59.201 128.208 105.043 205.103 136.254C353.087 721.14 431.541 736.424 512 736.424c80.46 0 158.913-15.284 233.182-45.428 76.896-31.21 145.902-77.053 205.103-136.254 15.621-15.621 15.621-40.948 0-56.568-15.621-15.622-40.947-15.621-56.568 0C791.667 600.223 656.104 656.424 512 656.424c-144.104 0-279.667-56.201-381.716-158.25-7.81-7.811-18.047-11.716-28.284-11.716zM792 346.92999999999995c-10.237 0-20.474 3.905-28.284 11.716-138.797 138.795-364.636 138.795-503.432 0-15.621-15.621-40.947-15.621-56.568 0s-15.621 40.947 0 56.568c41.636 41.636 90.174 73.879 144.269 95.835 52.241 21.204 107.424 31.955 164.015 31.955 56.59 0 111.773-10.751 164.015-31.955 54.094-21.956 102.634-54.199 144.27-95.834 15.621-15.621 15.621-40.948 0-56.569-7.811-7.811-18.049-11.716-28.285-11.716zM627 225.904c-10.238-0.001-20.474 3.904-28.285 11.716-23.187 23.188-53.982 35.958-86.715 35.958-32.732 0-63.528-12.77-86.715-35.958-15.621-15.621-40.947-15.621-56.569 0-15.621 15.62-15.621 40.947 0 56.568 38.297 38.298 89.184 59.39 143.285 59.39 54.102 0 104.987-21.092 143.285-59.39 15.62-15.622 15.62-40.948-0.001-56.569-7.81-7.808-18.05-11.714-28.285-11.715zM512 126.87m-56.318 0a56.318 56.318 0 1 1 112.636 0 56.318 56.318 0 1 1-112.636 0Z"  horiz-adv-x="1024" />

    
    <glyph glyph-name="xiaochengxu1" unicode="&#59419;" d="M2228.48 880.256c268.373333 0 486.485333-218.88 486.485333-488.128S2496.853333-96 2228.48-96H502.186667C233.813333-96 15.701333 122.88 15.701333 392.128S233.813333 880.234667 502.186667 880.234667h1726.293333z m0 15.744H502.186667C225.984 896 0 669.248 0 392.128s225.984-503.893333 502.186667-503.893333h1726.293333c276.202667 0 502.186667 226.773333 502.186667 503.893333S2504.682667 896 2228.48 896zM422.613333 408.384c0-33.792 28.224-61.184 63.04-61.184 34.837333 0 63.061333 27.392 63.061334 61.184 0 33.792-28.224 61.184-63.061334 61.184-34.816 0-63.04-27.392-63.04-61.184z m197.056 0c0-35.52 19.52-68.352 51.221334-86.122667a105.173333 105.173333 0 0 1 102.485333 0c31.701333 17.770667 51.221333 50.602667 51.221333 86.122667s-19.52 68.352-51.221333 86.101333a105.173333 105.173333 0 0 1-102.485333 0c-31.701333-17.749333-51.221333-50.56-51.221334-86.101333z m275.882667 0c0-33.792 28.224-61.184 63.061333-61.184 34.816 0 63.04 27.392 63.04 61.184 0 33.792-28.224 61.184-63.04 61.184-34.837333 0-63.061333-27.392-63.061333-61.184z m465.066667 208.042667h15.744V198.826667h-15.765334V616.426667z m679.445333 52.010666c-148.181333 0-268.010667-116.266667-268.010667-260.053333 0-143.786667 119.829333-260.053333 268.010667-260.053333 148.181333 0 267.989333 116.266667 267.989333 260.053333 0 143.786667-119.808 260.053333-267.989333 260.053333z m0-458.922666c-113.493333 0-204.949333 88.725333-204.949333 198.869333 0 110.144 91.434667 198.869333 204.949333 198.869333 113.493333 0 204.949333-88.746667 204.949333-198.869333 0-110.144-91.434667-198.869333-204.949333-198.869333zM1950.485333 408.384a97.514667 97.514667 0 1 1 195.029334 0 97.514667 97.514667 0 0 1-195.029334 0z"  horiz-adv-x="2730" />

    
    <glyph glyph-name="yingxiao" unicode="&#59410;" d="M101.344 45.328h237.328V426.672L273.728 472 101.344 325.328zM394.672 45.328H632v379.12L517.344 328l-122.672 66.672zM688 469.328v-424h237.328V466.672L824.016 600zM140.544 431.456l129.072 107.968 246.576-150.112 292.416 275.392c1.056 0.992 1.92 2.144 2.816 3.248l49.248-49.808 79.312 223.2-227.52-73.296 54.448-55.072c-0.72-0.56-1.488-1.024-2.176-1.664L507.824 469.344 263.744 617.92 99.488 480.544c-13.568-11.344-15.36-31.52-4.016-45.072s31.536-15.376 45.072-4.016zM920 1.344H100c-17.664 0-32-14.336-32-32s14.336-32 32-32h820c17.664 0 32 14.336 32 32s-14.336 32-32 32z"  horiz-adv-x="1024" />

    
    <glyph glyph-name="edit1" unicode="&#58922;" d="M900.352 49.024H123.776c-33.024 0-59.776-24.96-59.776-55.872s26.752-55.872 59.776-55.872h776.576c33.024 0 59.648 24.96 59.648 55.872 0 30.848-26.752 55.872-59.648 55.872zM817.216 602.24c29.888 30.208 31.232 77.824 3.2 106.24L718.72 811.52c-28.032 28.416-74.88 27.008-104.704-3.264l-67.2-68.224 203.328-206.08L817.28 602.24z m-621.696-497.28l104.96 3.328c19.52 0.64 38.656 9.088 52.928 23.616l342.592 347.52-203.136 206.08-342.592-347.52c-14.272-14.528-22.592-33.92-23.296-53.824l-3.2-106.496a69.12 69.12 0 0 1 71.744-72.64z"  horiz-adv-x="1024" />

    
    <glyph glyph-name="tupian" unicode="&#59524;" d="M954.165199 893.440609h-872.630326C36.440847 893.440609 0 856.999762 0 811.905737v-857.152107c0-45.094025 36.562723-81.534873 81.534873-81.534873h872.630326c45.094025 0 81.534873 36.562723 81.534872 81.534873V811.905737c0.121876 45.094025-36.440847 81.534873-81.534872 81.534872zM660.200905 670.773625c45.094025 0 81.534873-36.562723 81.534872-81.534872 0-45.094025-36.562723-81.534873-81.534872-81.534873-45.094025 0-81.534873 36.562723-81.534873 81.534873 0 44.972149 36.562723 81.534873 81.534873 81.534872zM185.129255 126.964056s71.662937 337.595811 151.004047 337.595811c131.869555 0 165.50726-236.073316 258.498452-236.073316 58.500357 0 52.40657 106.641276 145.397763 106.641276C806.695549 335.127827 838.626994 126.964056 838.626994 126.964056H185.129255z m0 0"  horiz-adv-x="1035" />

    
    <glyph glyph-name="xiaochengxu" unicode="&#59409;" d="M512 896a512 512 0 1 1 512-512A512 512 0 0 1 512 896z m256.717-460.186a151.962 151.962 0 0 0-87.347-65.74 83.251 83.251 0 0 0-24.474-4.096 29.082 29.082 0 0 0 0 58.163 15.667 15.667 0 0 1 6.451 1.229 91.443 91.443 0 0 1 55.91 40.96 75.264 75.264 0 0 1 11.06 39.628c0 45.978-42.496 83.866-94.31 83.866a105.267 105.267 0 0 1-51.2-13.414 81.92 81.92 0 0 1-43.725-70.452v-244.224a138.445 138.445 0 0 0-72.704-120.422 159.642 159.642 0 0 0-79.77-20.48c-84.378 0-153.6 63.488-153.6 142.029a136.192 136.192 0 0 0 19.763 69.837 151.962 151.962 0 0 0 87.347 65.74 85.914 85.914 0 0 0 24.474 4.096 29.082 29.082 0 1 0 0-58.163 15.667 15.667 0 0 1-6.451-1.229 95.949 95.949 0 0 1-55.91-40.96 75.264 75.264 0 0 1-11.06-39.628c0-45.978 42.496-83.866 94.925-83.866a105.267 105.267 0 0 1 51.2 13.414 81.92 81.92 0 0 1 43.622 70.452V505.65a138.752 138.752 0 0 0 72.807 120.525 151.245 151.245 0 0 0 79.155 21.504c84.378 0 153.6-63.488 153.6-142.029a136.192 136.192 0 0 0-19.763-69.837z"  horiz-adv-x="1024" />

    
    <glyph glyph-name="QRcode" unicode="&#59408;" d="M51.310317 407.320539h385.340482a51.310317 51.310317 0 0 1 51.310317 51.310317V844.6896830000001a51.310317 51.310317 0 0 1-51.310317 51.310317H51.310317A51.310317 51.310317 0 0 1 0 844.6896830000001v-386.058827a51.310317 51.310317 0 0 1 51.310317-51.310317z m24.115849 413.304605h337.108784v-338.648093H75.426166zM51.310317-127.94869000000006h385.340482a51.310317 51.310317 0 0 1 51.310317 51.310317v384.827379a51.310317 51.310317 0 0 1-51.310317 51.310318H51.310317a51.310317 51.310317 0 0 1-51.310317-51.310318v-384.827379a51.310317 51.310317 0 0 1 51.310317-51.310317z m24.115849 411.816606h337.108784v-336.236508H75.426166zM538.245227 844.6896830000001v-385.340482a51.310317 51.310317 0 0 1 51.310317-51.310317H974.896026a51.310317 51.310317 0 0 1 51.310318 51.310317V844.6896830000001a51.310317 51.310317 0 0 1-51.310318 51.310317h-385.340482a51.310317 51.310317 0 0 1-51.310317-51.310317z m412.53495-361.224633h-337.108784V820.625144h337.108784z m75.426167-284.413088v160.19081h-243.980559v-81.326853h162.653706v-78.863957z m-80.608509-80.608509v79.633613h-82.096507v-81.121612h81.326853v-163.37205h-78.299544V32.447362h-84.302852v164.911359H700.898933v-81.326852h-80.608509v80.557197h-82.096507v-81.326852h81.326853v-80.403267H538.245227v-162.653706h81.326853v162.653706h81.326853v-161.935361h81.326852v78.196923h83.533197v-79.120509H974.896026a51.310317 51.310317 0 0 1 51.310318 51.310317v194.979205z m-244.698902 79.633613v160.447362l-162.653706 0.718344v-81.326853h81.326853v-79.838853zM160.447362 735.603948H328.38603v-167.836047H160.447362z m0-536.038883H328.38603v-167.836048H160.447362zM702.951345 735.603948h167.836048v-167.836047H702.951345z"  horiz-adv-x="1024" />

    
    <glyph glyph-name="icontingzhibofangyuyin01" unicode="&#59405;" d="M512 896C229.216 896 0 666.784 0 384s229.216-512 512-512 512 229.216 512 512S794.784 896 512 896zM727.552 192.896c0-13.504-10.944-24.448-24.448-24.448L320.896 168.448c-13.504 0-24.448 10.944-24.448 24.448L296.448 575.104c0 13.504 10.944 24.448 24.448 24.448l382.176 0c13.504 0 24.448-10.944 24.448-24.448L727.52 192.896z"  horiz-adv-x="1024" />

    
    <glyph glyph-name="zhibo" unicode="&#58917;" d="M322.747 533.089l188.571-141.433-188.571-141.429V533.089z m696.77 117.308v-526.145c0-17.811-6.967-32.905-20.905-45.296-12.391-10.068-26.715-15.102-42.975-15.102-14.707 0-27.873 4.647-39.486 13.94L759.353 198.588v-41.813c0-36.39-12.969-67.556-38.913-93.498-25.94-25.94-57.102-38.909-93.498-38.909H136.803c-36.39 0-67.556 12.969-93.492 38.909-25.943 25.94-38.913 57.102-38.913 93.498V612.07c0 36.39 12.969 67.561 38.913 93.502 25.94 25.94 57.102 38.906 93.492 38.906H626.94c36.396 0 67.561-12.969 93.502-38.906 25.94-25.94 38.909-57.106 38.909-93.502v-36.004L916.148 696.86c11.617 9.292 24.779 13.937 39.489 13.937 17.805 0 32.909-6.004 45.296-18.003 12.388-12.004 18.586-26.134 18.586-42.396zM611.225 388.846c0 124.449-100.883 225.333-225.334 225.333s-225.33-100.883-225.33-225.333c0-124.446 100.88-225.326 225.33-225.326S611.225 264.4 611.225 388.846z"  horiz-adv-x="1024" />

    
    <glyph glyph-name="voice" unicode="&#58918;" d="M818.4 425.5v0.5c0 23.1-18.9 41.9-41.9 41.9-23.1 0-41.5-18.8-41.5-41.9 0-123.5-99.9-223.9-223-223.9S289 302.4 289 426c0 23.1-18.4 41.9-41.5 41.9-23 0-41.9-18.8-41.9-41.9v-0.5c0-155.5 115-283.7 264.4-304v-101.4H331c-23.1 0-42-18.8-42-41.9 0-23.1 18.9-42 42-42h362c23.1 0 42 18.9 42 42s-18.9 41.9-42 41.9H554V121.5c149.4 20.2 264.4 148.4 264.4 304zM512 272.29999999999995c92.4 0 167.3 75 167.3 167.8V663.9c0 92.4-74.9 167.8-167.3 167.8s-167.3-75.4-167.3-167.8V440c0-92.7 74.9-167.7 167.3-167.7z"  horiz-adv-x="1024" />

    
    <glyph glyph-name="jinyankai" unicode="&#58919;" d="M218.72536 178.71696299999996l46.672837 46.672838a275.124093 275.124093 0 0 1 487.608325 174.818433 33.025809 33.025809 0 0 0 66.051617 0 341.585121 341.585121 0 0 0-308.149901-339.401596v-100.783305h143.089093a33.025809 33.025809 0 0 0 0-66.051617H301.767527a33.025809 33.025809 0 0 0 0 66.051617h143.089093v100.783305a340.834534 340.834534 0 0 0-226.13126 117.910325z m-39.576383 56.976344A340.425124 340.425124 0 0 0 136.706719 400.208234a33.025809 33.025809 0 0 0 66.051617 0c0-41.282261 9.075274-80.449232 25.383473-115.59033l-48.924597-48.924597z m133.399703 36.846977l374.474459 374.474459V400.139999A209.481886 209.481886 0 0 0 477.882429 191.135759 209.14071 209.14071 0 0 0 312.54868 272.54028400000004z m-33.43522 63.049271a209.481886 209.481886 0 0 0-10.303506 64.618679V686.38642a209.14071 209.14071 0 0 0 412.003787 50.903416L279.11346 335.589555zM812.179633 772.724404m24.124766-24.124766l0 0q24.124766-24.124766 0-48.249532l-627.243912-627.243911q-24.124766-24.124766-48.249531 0l0 0q-24.124766 24.124766 0 48.249532l627.243911 627.243911q24.124766 24.124766 48.249532 0Z"  horiz-adv-x="1024" />

    
    <glyph glyph-name="tuisong" unicode="&#59406;" d="M1008.655901 889.662294a35.582799 35.582799 0 0 0 15.487477-36.478769l-146.299062-877.730377a36.030784 36.030784 0 0 0-36.030784-30.270978 38.910687 38.910687 0 0 0-13.695538 2.879903l-258.807265 105.660434-138.299332-168.506313a33.534868 33.534868 0 0 0-27.967056-13.183555 31.358942 31.358942 0 0 0-12.607575 2.303922 35.582799 35.582799 0 0 0-17.407412 13.439547 35.646797 35.646797 0 0 0-6.591778 20.863295v199.353272l493.679338 605.163576-610.795385-528.622159L23.601147 277.266962c-14.079525 5.247823-21.759266 15.743469-22.847229 31.358942a33.918855 33.918855 0 0 0 18.303382 33.726862L969.809212 890.878253A35.198812 35.198812 0 0 0 988.176592 895.99808a35.198812 35.198812 0 0 0 20.607305-6.335786z"  horiz-adv-x="1024" />

    
    <glyph glyph-name="bofang" unicode="&#59407;" d="M512.637 894.726C230.22 894.726 1.274 665.78 1.274 383.363S230.22-128 512.637-128 1024 100.946 1024 383.363 795.054 894.726 512.637 894.726z m249.765-521.382C736.468 358.167 432.608 180.79 417.41 172.007c-18.975-10.975-38.172 2.984-38.172 21.745V597.224c0 20.67 21.213 30.701 37.388 21.615 22.093-12.387 327.1-190.662 345.773-201.791 16.753-9.974 17.036-33.739 0.004-43.704z"  horiz-adv-x="1028" />

    
    <glyph glyph-name="staff" unicode="&#59287;" d="M324.266667 622.933333c0-102.4 85.333333-187.733333 187.733333-187.733333s187.733333 85.333333 187.733333 187.733333C699.733333 725.333333 614.4 810.666667 512 810.666667S324.266667 725.333333 324.266667 622.933333zM170.666667 311.46666700000003c-17.066667-42.666667-34.133333-123.733333-46.933334-200.533334C106.666667 34.13333299999999 170.666667-42.66666699999996 256-42.66666699999996h183.466667L345.6 392.533333c-55.466667 0-136.533333 12.8-174.933333-81.066666zM512 392.533333l-89.6-123.733333 72.533333-311.466667h34.133334l72.533333 311.466667zM900.266667 115.20000000000005c-12.8 72.533333-29.866667 153.6-46.933334 200.533333-38.4 93.866667-115.2 76.8-174.933333 76.8L584.533333-42.66666699999996H768c85.333333 0 149.333333 76.8 132.266667 157.866667z m-93.866667 42.666667h-85.333333c-12.8 0-21.333333 8.533333-21.333334 21.333333s8.533333 21.333333 21.333334 21.333333h85.333333c12.8 0 21.333333-8.533333 21.333333-21.333333 0-8.533333-12.8-21.333333-21.333333-21.333333z"  horiz-adv-x="1024" />

    
    <glyph glyph-name="menchuang-" unicode="&#59404;" d="M896 32a32 32 0 0 0-32-32H160a32 32 0 0 0 0 64h704a32 32 0 0 0 32-32zM746.6496 768H277.3504a64 64 0 0 1-64-64v-640a64 64 0 0 1 64-64h469.3504a64 64 0 0 1 64 64v640A64 64 0 0 1 746.6496 768z m-160-649.8304H437.3504a32 32 0 0 0 0 64h149.3504a32 32 0 1 0 0-64z m96 192.3072a64 64 0 0 0-64-64H405.3504a64 64 0 0 0-64 64V622.1312A64 64 0 0 0 405.3504 686.08h213.3504a64 64 0 0 0 64-64zM405.3504 611.8399999999999m38.8096 0l135.7312 0q38.8096 0 38.8096-38.8096l0-0.0512q0-38.8096-38.8096-38.8096l-135.7312 0q-38.8096 0-38.8096 38.8096l0 0.0512q0 38.8096 38.8096 38.8096ZM405.3504 481.28m38.8096 0l135.7312 0q38.8096 0 38.8096-38.8096l0-0.0512q0-38.8096-38.8096-38.8096l-135.7312 0q-38.8096 0-38.8096 38.8096l0 0.0512q0 38.8096 38.8096 38.8096Z"  horiz-adv-x="1024" />

    
    <glyph glyph-name="yuangongguanli" unicode="&#58916;" d="M955.7 123c-17.9-3.8-36.9 3.8-46.5 20.3-9.6 16.5-6.5 36.5 5.8 49.8-16.7 15.9-37.2 28-60 34.7-5.6-17.2-21.8-29.7-41.1-29.6-19.3 0.1-35.4 12.7-40.8 30-22.9-6.5-43.5-18.4-60.3-34.1 12.2-13.4 15.1-33.5 5.4-49.9s-28.8-23.9-46.7-19.9c-2.8-11-4.4-22.5-4.5-34.3s1.5-23.3 4.2-34.3c17.9 3.8 36.9-3.8 46.5-20.3s6.5-36.5-5.8-49.8c16.7-15.9 37.2-28 60-34.7 5.6 17.2 21.8 29.7 41.1 29.6 19.3-0.1 35.4-12.7 40.8-30 22.9 6.5 43.5 18.4 60.3 34.1-12.2 13.4-15.1 33.5-5.4 49.9s28.8 23.9 46.7 19.9c2.8 11 4.4 22.5 4.5 34.3s-1.5 23.3-4.2 34.3z m-142.4-89.3c-31.1 0.1-56.2 25.1-56.1 55.9 0.1 30.7 25.5 55.5 56.6 55.4 31.1-0.1 56.2-25.1 56.1-55.9-0.2-30.8-25.6-55.5-56.6-55.4z m-276.1 231c-5.7 6.1-11 12.8-15.9 19.8-18.7 8.1-37.8 15.3-56.5 21.5-4.4 1.4-31.3 10.7-14.1 66.3h-0.2c2.8 2.9 5.5 5.9 8.2 8.8 3.5 2.3 6.6 5 9.9 7.5-4.3 7.2-8 15.1-10.6 23.5-10.6 34.5-2.9 68.8 17.7 90.5 5 60 41.4 111.3 92.8 137.9-1.3 0.7-2.5 1.4-4 1.9-2.6 0.8-5.3 1-8 0.9-0.3 15.2-1.2 24.5-1.2 24.5 0 90.2-74.7 164-166 164h-49.9c-91.3 0-166-73.8-166-164 0 0-0.9-9.3-1.2-24.5-2.7 0.1-5.4-0.1-8-0.9-18.3-5.5-26.3-31.8-18-58.8 6.1-19.7 19.2-34.1 32.9-38.4 10.7-63.3 36.8-134.3 98.2-168.7 2.3-2.5 4.5-5 6.9-7.4 17.6-45.5-15.3-61.7-21.9-64.1-91-32.5-200.7-91.8-200.7-150.3v-21.9c0-79.7 158.8-97.8 303.6-97.8 19.9 0 40 0.4 59.9 1.2-18.3 17.1-30.1 39.4-30.1 68.8v15.7c0 68.1 77.4 115.9 142.2 144zM674.9 233.6c15.4 14.4 33.1 26 52.2 35 0.6 2.6 1 5 1.9 8h-0.2c2.2 2.3 4.3 4.6 6.4 6.9 39.8 25.8 57.3 73.9 64.6 117.1 9.8 3.1 19.3 13.4 23.6 27.4 6 19.3 0.2 38.2-12.9 42.1-1.9 0.6-3.8 0.1-5.7 0-0.2 11.1-0.8 18.1-0.8 18.1 0 64.6-53.5 117.5-119 117.5h-35.8c-65.4 0-119-52.9-119-117.5 0 0-0.6-7-0.8-18.1-1.9 0.1-3.9 0.5-5.7 0-13.1-3.9-18.8-22.8-12.9-42.1 4.3-14.1 13.8-24.3 23.6-27.4 7.6-44.8 26.2-94.6 69.1-119.7 2-2.2 4-4.5 6.2-6.6 12.6-32.6-11-44.2-15.7-45.9-65.2-23.3-143.8-65.8-143.8-107.7V105c0-48.5 82-65.1 170.2-69.1-0.9 2.4-2.1 4.5-2.7 6.9-3.9 15.9-5.8 31.8-5.7 47.4 0.1 15.5 2.1 31.4 6.1 47.3 5.3 20.9 22.2 36 42.2 40.1a53.98 53.98 0 0 0 14.6 56z"  horiz-adv-x="1024" />

    
    <glyph glyph-name="security" unicode="&#58915;" d="M771.2256 270.3872a162.4576 162.4576 0 1 0-162.4576-162.4576 162.4576 162.4576 0 0 0 162.4576 162.4576zM854.3232 46.08000000000004H791.04v54.0672h57.2928q10.8032 0 12.4928 12.4928-1.7408 12.4416-12.4928 13.1072H791.04v44.1344H849.92q10.8032 0 12.4928 12.4928a12.6976 12.6976 0 0 1-12.4928 12.4928h-159.5904a12.0832 12.0832 0 0 1-12.4928-11.6224v-0.8704q0.8192-12.4928 12.4928-12.4928h74.0864V46.08000000000004h-35.84v89.088a13.824 13.824 0 0 1-13.4144 14.2336 12.6976 12.6976 0 0 1-12.4928-14.1312V46.08000000000004H686.08a11.4176 11.4176 0 0 1-11.6736-11.1616v-0.512q0.8192-12.4928 11.6736-13.312h169.7792a11.52 11.52 0 0 1 11.7248 13.2096 12.6976 12.6976 0 0 1-13.3632 11.6736zM619.8784-7.423999999999978c-53.4016-34.304-107.008-55.04-148.8384-55.04-130.2016 0-372.48 199.2704-372.48 387.7888V700.7232l36.9152 0.7168a530.2272 530.2272 0 0 1 168.96 36.4032 750.7456 750.7456 0 0 1 144.4864 76.8L471.04 830.6176l22.0672-15.9744a734.0544 734.0544 0 0 1 144.4864-76.8 530.5856 530.5856 0 0 1 168.96-36.4032l36.864-0.7168v-375.3984a237.2608 237.2608 0 0 0-3.8912-42.0864 186.8288 186.8288 0 0 1-219.7504-290.6112zM480.0512 390.8096l-71.68-71.68L314.4704 413.184a32.3072 32.3072 0 0 1-45.7216-45.7216L385.4848 250.88a32.512 32.512 0 0 1 45.7216 0l243.6096 243.6096a32.3072 32.3072 0 0 1-45.6704 45.4144L480.0512 390.8096"  horiz-adv-x="1024" />

    
    <glyph glyph-name="md-storehouse" unicode="&#59396;" d="M928.01 357.847v-159.068c0-9.17504-2.43712-17.7152-7.2704-25.6205-4.85376-7.90528-11.4688-13.8854-19.8861-17.961l-171.295-85.6474c-6.36928-3.56352-13.6397-5.34528-21.7907-5.34528-8.15104 0-15.4214 1.78176-21.7907 5.34528l-171.295 85.6474c-1.024 0.512-1.90464 1.024-2.68288 1.536-0.512-0.512-1.41312-1.024-2.68288-1.536l-171.295-85.6474c-6.36928-3.56352-13.6397-5.34528-21.7907-5.34528-8.15104 0-15.4214 1.78176-21.7907 5.34528l-171.295 85.6474c-8.41728 4.07552-15.0528 10.0762-19.8861 17.961-4.85376 7.90528-7.2704 16.4454-7.2704 25.6205v159.068c0 9.68704 2.74432 18.5958 8.21248 26.7674 5.46816 8.15104 12.6771 14.2746 21.6064 18.3501l165.949 71.127v152.945c0 9.68704 2.74432 18.5958 8.21248 26.7674 5.46816 8.15104 12.6771 14.2746 21.6064 18.3501l171.295 73.4208c5.85728 2.53952 12.2266 3.82976 19.1078 3.82976 6.88128 0 13.2506-1.26976 19.1078-3.82976l171.295-73.4208c8.92928-4.07552 16.1178-10.199 21.6064-18.3501 5.46816-8.15104 8.21248-17.0803 8.21248-26.7674v-152.945l165.949-71.127c9.17504-4.07552 16.4454-10.199 21.7907-18.3501 5.38624-8.17152 8.06912-17.0803 8.06912-26.7674ZM340.705 125.35799999999995l146.821 73.4208v120.054l-146.821-62.7098v-130.765Zm195.768 285.635l146.821 63.0989v101.704l-146.821-62.7098v-102.093Zm195.768-285.635l146.821 73.4208v120.054l-146.821-62.7098v-130.765Z"  horiz-adv-x="1024" />

    
    <glyph glyph-name="duigou" unicode="&#58914;" d="M60.217477 262.089439c0 0 250.197342-104.557334 374.563838-330.628186 149.378146 279.762705 436.109566 540.713972 521.05012 560.013527 0 115.776863 0 163.394371 0 341.442486-342.237595-226.070852-506.576477-642.342604-506.576477-642.342604l-180.049702 191.614086L60.217477 262.089439z"  horiz-adv-x="1024" />

    
    <glyph glyph-name="tongji" unicode="&#58913;" d="M1070.312727-127.674182a44.334545 44.334545 0 0 0-46.545454 41.890909V505.204364a46.801455 46.801455 0 0 0 93.090909 0v-590.964364a44.334545 44.334545 0 0 0-46.545455-41.914182z m3.490909 768.465455a42.589091 42.589091 0 0 0-42.821818 42.449454V749.242182L763.112727 484.584727a51.339636 51.339636 0 0 0-67.258182 0L385.629091 791.272727 75.170909 484.328727a44.893091 44.893091 0 0 0-61.207273 1.675637 43.589818 43.589818 0 0 0-1.629091 60.509091L352.814545 883.246545a44.916364 44.916364 0 0 0 33.28 12.567273 45.498182 45.498182 0 0 0 33.745455-12.637091l309.76-306.362182 236.450909 233.658182h-64a42.472727 42.472727 0 1 0 0 84.922182h165.469091a44.893091 44.893091 0 0 0 21.410909-2.978909 41.890909 41.890909 0 0 0 27.927273-39.400727v-169.890909a42.775273 42.775273 0 0 0-43.054546-42.333091zM46.545455 267.962182a45.218909 45.218909 0 0 0 46.778181-43.496727V-84.247273a46.778182 46.778182 0 0 0-93.323636 0V224.465455a45.149091 45.149091 0 0 0 46.545455 43.496727z m348.858181 279.272727a44.474182 44.474182 0 0 0 46.545455-41.890909v-590.964364a46.801455 46.801455 0 0 0-93.090909 0V505.204364a44.218182 44.218182 0 0 0 46.545454 41.914181z m349.556364-279.272727a45.149091 45.149091 0 0 0 46.545455-43.496727V-84.247273a46.778182 46.778182 0 0 0-93.323637 0V224.465455a45.218909 45.218909 0 0 0 46.778182 43.496727z"  horiz-adv-x="1117" />

    
    <glyph glyph-name="team-admin" unicode="&#59403;" d="M927.99 204.51300000000003c0-38.1338-16.9779-45.2403-79.5443-45.5475-16.8141 147.866-96.1741 220.754-181.084 255.468 56.7501 70.3898 58.8186 170.23 5.0176 242.893 64.7987 16.7936 130.949-22.1184 147.743-86.9376 14.889-57.4259-13.9878-117.187-68.2189-141.23 104.018-24.4941 177.132-117.801 176.087-224.645Zm-342.077 197.98c101.376-19.7222 220.774-86.8352 220.774-278.385 0-51.9782-69.1405-51.9782-294.605-51.9782-226.324 0-294.605-0.53248-294.605 51.9782 0 191.078 119.05 258.56 220.774 278.385-75.8784 40.7757-104.325 135.332-63.5699 211.21S510.013 718.029 585.892 677.274c75.8784-40.7757 104.325-135.332 63.5699-211.21-14.4794-26.9722-36.5773-49.0701-63.5494-63.5699Zm-229.601 12.7386C271.913 379.69899999999995 192.717 304.98800000000005 175.903 158.76099999999997c-62.9146 0.14336-79.7082 7.04512-79.7082 45.6704-4.54656 107.766 69.4682 203.039 175.022 225.28-61.0099 27.4842-88.1869 99.2051-60.7027 160.215 24.3098 53.9648 84.0499 82.4525 141.271 67.3997-53.5962-72.3763-51.753-171.766 4.52608-242.094Z"  horiz-adv-x="1024" />

    
    <glyph glyph-name="denglu" unicode="&#58911;" d="M527.228843 848.693578c-247.419066 0-447.996291-200.574155-447.996291-447.992197S279.8108-47.29184 527.228843-47.29184 975.222063 153.282315 975.222063 400.70138 774.647909 848.693578 527.228843 848.693578zM796.84956 127.272941c-31.645744 12.748349-26.16287 1.172709-89.291652 27.157523-76.119655 31.29168-94.149287 41.509393-94.149287 41.509393l-0.669242 71.759347c0 0 28.513404 21.476127 37.403888 89.337701 17.795295-5.109368 23.823592 20.711717 24.781406 37.202297 1.059122 15.939017 10.524704 65.623603-11.253298 61.185524 4.457522 33.172517 7.956206 63.154365 6.365988 79.039147-5.442966 55.723116-44.252877 113.909329-142.230352 118.154004-83.299171-4.25593-137.366577-62.470797-142.825916-118.201076-1.565658-15.875572 1.63115-45.834908 6.079462-79.05859-21.76163 4.485151-12.392238-45.278229-11.434423-61.210084 1.046842-16.491603 6.936993-42.400692 24.781406-37.283138 8.857738-67.86669 37.367049-89.511663 37.367049-89.511663l-0.716314-72.129784c0 0-18.033725-10.914584-94.157473-42.203194-63.072501-25.969465-57.656141-13.462616-89.214904-25.824155-70.65827 69.642127-114.464985 166.455079-114.464985 273.504164 0 212.079186 171.925674 384.008954 384.008954 384.008954s384.008954-171.929768 384.008954-384.008954C911.23882 293.691181 867.463828 196.908928 796.84956 127.272941z"  horiz-adv-x="1024" />

    
    <glyph glyph-name="sousuo1" unicode="&#59402;" d="M985.395-21.163L780.05 184.201c60.297 75.502 93.133 168.482 93.133 266.513 0 114.38-44.544 221.883-125.423 302.745C666.914 834.34 559.394 878.865 445.013 878.865c-114.363 0-221.883-44.527-302.728-125.406-166.946-166.929-166.946-438.545-0.017-605.508 80.862-80.862 188.382-125.406 302.745-125.406 98.219 0 191.335 32.922 266.889 93.423l205.329-205.33c24.252-24.268 59.187-28.671 77.995-9.847 18.875 18.842 14.438 53.778-9.83 78.046zM193.4 199.117c-138.734 138.735-138.717 364.493 0.018 503.228A353.45 353.45 0 0 0 445.013 806.554c95.062 0 184.406-37 251.614-104.21 67.209-67.208 104.226-156.57 104.226-251.613S763.82 266.325 696.627 199.134a353.553 353.553 0 0 0-251.614-104.226A353.434 353.434 0 0 0 193.4 199.117z"  horiz-adv-x="1024" />

    
    <glyph glyph-name="shouye1" unicode="&#59401;" d="M924.225641 469.333333L518.564103 810.666667c-1.312821 1.312821-3.938462 1.312821-3.938462 1.31282L512 814.605128c-1.312821 0-3.938462 1.312821-5.251282 1.312821h-3.938462C500.184615 817.230769 498.871795 817.230769 498.871795 817.230769c-1.312821 0-3.938462 0-5.251282-1.31282 0 0-1.312821 0-1.312821-1.312821-1.312821 0-3.938462-1.312821-3.938461-1.31282L78.769231 471.958974c-11.815385-9.189744-13.128205-27.569231-3.938462-39.384615l1.312821-1.312821c9.189744-9.189744 23.630769-11.815385 35.446154-5.251282v-443.733333c0-21.005128 17.066667-39.384615 39.384615-39.384615h233.682051c21.005128 0 39.384615 17.066667 39.384616 39.384615V138.502564h156.225641v-156.225641c0-21.005128 17.066667-39.384615 39.384615-39.384615h241.558974c21.005128 0 31.507692 17.066667 31.507693 39.384615V422.071795c11.815385-5.251282 27.569231-3.938462 35.446154 5.251282l1.31282 1.31282c7.876923 13.128205 6.564103 30.194872-5.251282 40.697436zM636.717949-1.969231V154.25641v1.312821c-1.312821 19.692308-17.066667 35.446154-36.758975 36.758974H401.723077c-19.692308 0-36.758974-17.066667-36.758974-36.758974v-156.225641h-196.923077V470.646154L500.184615 748.964103l332.14359-279.63077v-469.989743H636.717949z"  horiz-adv-x="1024" />

    
    <glyph glyph-name="quanxian" unicode="&#59400;" d="M607.5 188.2h33.6v55.9c0 167.8 123.1 151.1 128.7 151.1 134.3 0 123.1-145.5 123.1-151.1v-55.9H932c16.8 0 28-11.2 28-22.4v-201.4c0-16.8-11.2-28-28-28H607.5c-16.8 0-28 11.2-28 22.4V160.2c0.1 16.8 11.3 28 28 28z m240.6 55.9s5.6 100.7-78.3 100.7c-5.6 0-78.3 5.6-78.3-100.7v-55.9h156.7l-0.1 55.9zM64.9 3.6c5.6-33.6 39.2-67.1 78.3-67.1h324.5c22.4 0 39.2 16.8 39.2 39.2V171.4c0 190.2 50.4 257.4 162.2 296.5 33.6 11.2 50.4 44.8 44.8 78.3 5.6 22.4-11.2 44.8-33.6 44.8h-5.6l-11.2 78.3C646.7 764.4 562.8 831.6 462.1 831.6h-11.2c-95.1-5.6-173.4-72.7-195.8-162.2L243.9 591c-22.4 0-39.2-16.8-39.2-39.2v-5.6c-5.6-33.6 16.8-72.7 44.8-89.5 33.6-22.4 22.4-78.3 72.7-128.7 28-16.8 44.8-50.4 44.8-78.3 0-22.4-16.8-50.4-39.2-55.9-72.7-22.4-145.5-55.9-212.6-89.5-33.6-16.8-55.9-56-50.3-100.7z"  horiz-adv-x="1024" />

    
    <glyph glyph-name="mima" unicode="&#59399;" d="M506.24512-128c-228.66944 0-415.7696 187.09504-415.7696 415.7696v36.95104c0 97.01376 78.53568 177.85856 177.85856 177.85856h501.22752c85.45792 0 154.75712-69.29408 154.75712-154.76736v-60.04736C922.01472 59.09504 734.91968-128 506.24512-128zM266.02496 433.28512c-60.05248 0-108.55936-48.50688-108.55936-108.56448v-36.95104c0-191.72352 154.75712-346.47552 346.47552-346.47552 191.71328 0 346.47552 154.752 346.47552 346.47552v57.73824c0 48.50688-39.2704 85.46304-85.47328 85.46304H266.02496v2.31424zM707.2 477.16864c-18.47808 0-34.65216 16.16896-34.65216 34.64704v140.9024c0 92.39552-73.91744 166.30784-166.30272 166.30784S339.9424 745.10848 339.9424 652.71296v-140.9024c0-18.47808-16.16896-34.64704-34.64704-34.64704-18.47808 0-34.64704 16.16896-34.64704 34.64704v140.9024C270.6432 782.06464 376.89344 888.32 506.24512 888.32c129.3568 0 235.60704-106.25024 235.60704-235.60192v-140.9024c0-18.47808-16.17408-34.64704-34.65216-34.64704zM506.24512 112.21504c-18.47808 0-34.64704 16.17408-34.64704 34.64704v150.13888c0 18.4832 16.16896 34.65216 34.64704 34.65216 18.47808 0 34.65216-16.16384 34.65216-34.65216v-150.13888c0-18.47296-16.17408-34.64704-34.65216-34.64704z"  horiz-adv-x="1024" />

    
    <glyph glyph-name="fengxiao1" unicode="&#58912;" d="M886.169878 414.845047c32.373406 33.762822 50.991588 78.779919 50.991587 124.074899 0 84.75441-58.216554 156.031479-141.581546 173.121302-1.6673 0.277883-3.3346 0.416825-5.140842 0.416825-13.894166 0-29.872456-9.309091-32.373405-24.731614-2.50095-15.283582 7.224966-34.596472 24.314789-37.514247 53.214654-11.671099 90.451018-57.382904 90.451018-111.292266 0-36.541655-17.64559-70.999186-48.351696-94.897151l-6.6692-2.223066-0.416825-0.138942c-10.003799-5.0019-16.256174-15.422524-16.256173-26.954681 0-11.115332 8.197558-21.674898 15.839349-26.81574l0.416824-0.277883 0.416825-0.138942c4.446133-1.528358 41.543555-22.64749 75.862144-70.165536 31.678697-43.62768 67.803528-120.323474 60.43962-237.034464v-0.277883c0-18.757123 11.254274-31.956581 29.31669-34.45753h2.917774c15.561465 0 29.316689 12.504749 32.095523 29.177747v0.416825c11.532157 188.404885-76.556852 292.889009-132.272456 339.712347zM639.131615 401.089824c57.521845 41.682497 91.701493 107.818725 91.701492 178.262143 0 57.799729-22.64749 112.542741-63.77422 153.947355-41.404613 41.682497-96.425509 64.60787-154.919945 64.607869-57.799729 0-112.542741-22.64749-153.947354-63.774219-41.682497-41.404613-64.60787-96.425509-64.60787-154.919946 0-70.443419 34.179647-136.718589 91.701492-178.401086-63.635278-24.453731-118.239349-66.969878-158.254545-122.963365-42.516147-59.467028-64.885753-129.632564-64.885753-203.1327v-62.10692c0-11.671099 6.252374-21.952782 16.256173-26.954681l0.277884-0.138942c5.974491-2.362008 11.671099-3.612483 16.950882-3.612483 7.086024 0 13.060516 2.223066 17.506648 6.391317 9.725916 5.140841 15.700407 15.283582 15.700407 26.815739v62.10692c0 157.559837 128.243148 285.802985 285.802985 285.802985s285.802985-128.243148 285.802986-285.802985V15.109905c0-18.618182 13.477341-32.095522 32.095522-32.095522 18.618182 0 32.095522 13.477341 32.095522 32.095522v62.245862c-1.111533 72.944369-24.036906 142.415197-66.136228 200.909633-40.154138 56.27137-95.175034 98.509634-159.366078 122.824424z m-124.491724 24.036906c-83.642877 0-154.225237 70.721303-154.225237 154.364179 0 83.642877 70.721303 154.225237 154.225237 154.225238s154.225237-70.721303 154.225238-154.225238c0-83.642877-70.582361-154.364179-154.225238-154.364179zM211.469199 384.972592l0.416825 0.138941c10.003799 5.0019 16.256174 15.422524 16.256174 26.954681 0 11.532157-6.113433 21.81384-16.117232 26.954682l-7.086024 4.724016c-32.373406 20.841248-50.991588 55.43772-50.991588 95.036092 0 53.909362 37.236364 99.760109 90.451018 111.292266 16.950882 2.917775 26.815739 22.091723 24.314789 37.514247-2.50095 14.588874-15.561465 24.731615-31.817639 24.731615-1.806242 0-3.751425-0.138942-5.557666-0.416825h-0.277883c-81.975577-16.81194-141.442605-89.617368-141.442605-173.121303 0-47.518046 18.47924-92.535142 50.852646-124.074898C84.893351 368.02171-3.056716 263.398643 8.614383 74.993758c0.138942-15.561465 15.422524-29.594573 32.095522-29.594572H43.071913c17.506649 0 29.733514 14.172049 29.733514 34.596472v0.138942c-6.113433 115.599457 30.567164 191.600543 62.523745 234.950339 34.735414 47.240163 71.832836 68.359294 76.140027 69.887653z"  horiz-adv-x="1024" />

    
    <glyph glyph-name="gouwuche1" unicode="&#59398;" d="M955.68152 668.672528c0 20.390399-16.58984 36.919864-37.050848 36.919864L296.064484 705.592392c-4.54041 0-8.887414-0.816598-12.906961-2.304486L249.814114 806.283676c-5.824659 17.46272-23.482831 27.691689-41.148166 24.790616-0.51063 0.021489-1.022283 0.038886-1.537006 0.038886L103.365694 831.113177c-20.466124 0-37.058011-16.530488-37.058011-36.919864 0-20.387329 16.591887-36.916794 37.058011-36.916794l84.443227 0 148.250462-457.939757L227.71377 165.967218c-12.879332-15.84999-10.423397-39.09439 5.487991-51.92051 10.015098-8.075933 22.969131-10.090822 34.406624-6.52767l628.78175 0c20.470217 0 37.061081 16.531512 37.061081 36.920888 0 20.386306-16.590863 36.916794-37.061081 36.916794l-560.833195 0 59.982116 73.832566 404.50373 0c20.218484 0 36.643572 16.135492 37.038568 36.182061 0.037862 0.110517 0.081864 0.218988 0.118704 0.329505L953.602162 642.195503c2.060939 6.202259 2.371 12.559037 1.213641 18.547425C955.376575 663.299147 955.68152 665.94951 955.68152 668.672528zM771.533476 329.027991 404.319024 329.027991l-98.003058 302.727743 565.756321 0L771.533476 329.027991zM518.407432 402.863626c20.466124 0 37.056987 16.530488 37.056987 36.918841l0 95.986121c0 20.389376-16.590863 36.917818-37.056987 36.917818-20.465101 0-37.054941-16.528442-37.054941-36.917818l0-95.986121C481.352491 419.394115 497.942331 402.863626 518.407432 402.863626zM681.461041 402.863626c20.466124 0 37.054941 16.530488 37.054941 36.918841l0 95.986121c0 20.389376-16.588817 36.917818-37.054941 36.917818s-37.055964-16.528442-37.055964-36.917818l0-95.986121C644.405077 419.394115 660.994917 402.863626 681.461041 402.863626zM347.945085 55.834912c-32.748868 0-59.295478-26.446325-59.295478-59.07035 0-32.620955 26.546609-59.069327 59.295478-59.069327 32.745798 0 59.291384 26.448372 59.291384 59.069327C407.235446 29.38961 380.690884 55.834912 347.945085 55.834912zM807.457664 55.834912c-32.749892 0-59.294454-26.446325-59.294454-59.07035 0-32.620955 26.544563-59.069327 59.294454-59.069327 32.744775 0 59.290361 26.448372 59.290361 59.069327C866.749048 29.38961 840.202439 55.834912 807.457664 55.834912z"  horiz-adv-x="1024" />

    
    <glyph glyph-name="kefu" unicode="&#58880;" d="M864.217096 736.356038c-93.785617 87.533243-218.972049 135.745997-352.217096 135.745997S253.707463 823.889281 159.782904 736.356038 13.755224 531.278155 13.755224 406.230665c-0.138942-63.357395 14.449932-125.742198 42.377205-182.430394 27.093623-55.159837 65.858345-103.928358 115.182632-145.055088l15.561465-129.076798c3.612483-29.316689 28.483039-51.408412 57.938671-51.408412 8.197558 0 16.395115 1.806242 23.897964 5.140841 26.954681 12.226866 54.326187 24.870556 81.002986 37.653189l8.197557 3.890366c20.007598 9.725916 35.985889 17.64559 48.351696 24.175848 34.735414-6.669199 70.165536-10.003799 105.595658-9.864857 135.468114 0 260.932429 45.156038 353.32863 127.270556C958.836364 169.335142 1010.105834 282.850475 1010.105834 406.230665c0 125.04749-51.686296 242.314247-145.888738 330.125373zM232.171506 117.232022C136.579647 188.786974 81.697693 294.104749 81.697693 406.230665 81.697693 625.619539 274.687653 804.298507 512 804.298507c237.312347 0 430.163365-178.540027 430.163365-398.067842 0-216.054274-184.931343-379.032836-430.302307-379.032836h-0.555766c-37.79213 0-75.445319 4.446133-112.403799 13.060516l-3.890367 0.972591-3.3346-2.223066c-25.009498-15.97829-107.957666-54.187246-138.941655-68.359295l-17.367707 144.221439-3.195658 2.362008z m0 0M354.440163 216.019539c40.987788-38.62578 95.591859-59.744912 153.669471-59.744912s112.681682 21.258073 153.66947 59.744912c40.987788 38.62578 63.77422 90.589959 63.77422 145.749796-0.416825 18.47924-15.561465 33.207056-34.040705 33.207056s-33.484939-14.727815-34.040706-33.207056c0-75.862144-67.10882-137.552239-149.501221-137.552239S358.469471 285.76825 358.469471 361.769335c-0.416825 18.47924-15.561465 33.207056-34.040706 33.207056s-33.484939-14.727815-34.040705-33.207056c0.277883-55.298779 22.925373-107.124016 64.052103-145.749796z m0 0"  horiz-adv-x="1024" />

    
    <glyph glyph-name="gouwudai" unicode="&#58881;" d="M905.568308 895.02754H118.431692C53.415819 895.02754 0.625153 842.097951 0.625153 776.943156v-786.997694c0-65.015873 52.929589-117.945462 117.806539-117.945462h787.136616c65.015873 0 117.945462 52.929589 117.945462 117.945462V777.082078c0 65.015873-52.929589 117.945462-117.945462 117.945462zM67.724868 777.082078c0 27.923484 22.644417 50.706824 50.567901 50.706824h787.136616c27.923484 0 50.567901-22.78334 50.567902-50.706824v-786.997693c0-27.923484-22.644417-50.567901-50.567902-50.567901H118.431692c-27.923484 0-50.567901 22.644417-50.567901 50.567901V777.082078zM201.924298 581.895537c12.503053-71.545245 50.01221-136.977886 105.581332-184.489486 56.95835-48.761905 129.476055-75.574006 204.355447-75.574007 74.879392 0 147.397097 26.812101 204.355447 75.574007 55.569122 47.650522 93.07828 113.083164 105.581332 184.489486 20.143807 10.697056 32.924705 31.813322 32.924705 54.596662 0 34.036087-27.645638 61.681726-61.681725 61.681726s-61.820648-27.645638-61.820649-61.681726c0-18.893502 8.613214-36.675621 23.339032-48.345136-22.922263-115.583774-124.474834-199.07638-242.698142-199.076381s-219.775878 83.492606-242.698141 199.076381c14.725817 11.669516 23.339031 29.451635 23.339031 48.484059 0 34.036087-27.784561 61.681726-61.820648 61.681726s-61.681726-27.645638-61.681726-61.681726c0.138923-22.922263 12.919821-44.177452 32.924705-54.735585z"  horiz-adv-x="1024" />

    
    <glyph glyph-name="shoucang" unicode="&#58882;" d="M727.498507 841.256988c-84.75441 0-163.256445-42.655088-215.498507-112.820624-51.686296 70.165536-130.744098 112.820624-215.498507 112.820624-152.696879 0-276.632836-135.745997-276.632836-302.475984 0-99.343284 44.322388-169.50882 80.308277-225.641248C203.96635 149.883311 465.454545-52.693623 476.70882-61.030122c10.698507-8.475441 23.064315-12.365807 35.29118-12.365807 12.365807 0 24.731615 3.890366 35.29118 12.365807 11.254274 8.475441 272.186703 211.608141 376.531886 374.308819 35.846947 56.132429 80.308277 126.297965 80.308277 225.641249 0 166.591045-123.935957 302.337042-276.632836 302.337042z m125.186432-526.310991C756.676255 180.311533 553.543555 26.503121 543.539756 19.278155c-9.586974-7.363908-20.702307-11.254274-31.400814-11.254274-11.254274 0-21.952782 3.3346-31.400814 11.254274-10.142741 7.363908-209.385075 162.700678-309.145184 301.36445-31.956581 50.435821-83.08711 113.376391-83.08711 202.021167 0 149.223338 83.08711 254.263229 219.388874 254.263229 75.723202 0 158.254545-72.388602 204.244234-135.19023 46.545455 62.801628 128.521031 135.190231 204.244233 135.19023 136.857531 0 225.641248-104.90095 225.641248-254.263229-0.138942-88.783718-56.827137-157.83772-89.339484-207.717775z m0 0"  horiz-adv-x="1024" />

    
    <glyph glyph-name="liulan" unicode="&#58883;" d="M513.111533 546.561737c-91.145726 0-165.34057-74.194844-165.34057-165.34057s74.194844-165.34057 165.34057-165.34057 165.34057 74.194844 165.34057 165.34057-74.194844 165.34057-165.34057 165.34057z m92.813026-165.34057c0-51.130529-41.682497-92.813026-92.813026-92.813026s-92.813026 41.682497-92.813026 92.813026 41.682497 92.813026 92.813026 92.813026 92.813026-41.682497 92.813026-92.813026zM1022.471642 381.221167c0.555767 6.113433-0.555767 12.226866-2.917775 17.784532-42.516147 92.813026-117.54464 179.512619-205.911533 237.729172-44.878155 30.011398-93.368792 53.214654-144.221438 69.054003-51.130529 15.839349-103.372592 23.897965-155.336771 23.897965h-1.945183c-51.825237 0-104.206242-8.058616-155.475713-23.897965-50.991588-15.839349-99.621167-39.181547-144.221438-69.054003C124.074898 578.240434 49.046404 491.679783 6.669199 399.14464c-2.50095-5.418725-3.473541-11.532157-2.917774-17.784531-0.555767-6.391316 0.555767-12.504749 2.917774-17.923474 42.377205-92.674084 117.405699-179.234735 205.772592-237.729172 45.156038-30.150339 93.646676-53.353596 144.221438-69.054003 51.130529-15.839349 103.23365-23.897965 154.919946-23.897965h2.778833c51.686296 0 103.928358 8.058616 155.058888 23.897965 51.130529 15.839349 99.621167 39.181547 144.221438 69.054003 88.505834 58.494437 163.395387 145.19403 205.772591 237.868114 2.639891 5.418725 3.612483 11.532157 3.056717 17.64559z m-68.498236 0.83365c-39.45943-75.862144-99.760109-144.638263-170.064586-193.545726-80.58616-56.827137-176.316961-88.227951-269.685754-88.227951h-2.362008c-93.090909 0-188.82171 31.261872-269.685753 88.227951-70.165536 48.768521-130.466214 117.54464-169.925644 193.545726 39.45943 76.001085 99.760109 144.638263 170.064586 193.545726 80.725102 56.827137 176.594844 88.227951 269.685753 88.227951h2.362008c93.090909 0 188.82171-31.261872 269.685753-88.227951 70.165536-49.046404 130.466214-117.822524 169.925645-193.545726z"  horiz-adv-x="1024" />

    
    <glyph glyph-name="shezhi" unicode="&#58884;" d="M535.897965-117.440434H494.632293c-57.382904 0-110.180733 39.042605-130.883039 94.0635-9.170149 4.585075-20.702307 9.170149-29.872456 13.755224-18.340299-6.947083-36.680597-11.532157-57.382904-11.532157-36.680597 0-73.500136 13.755224-98.787517 41.265672l-29.872456 29.872456c-41.265672 41.265672-52.797829 105.595658-29.872456 156.17042-4.585075 9.170149-9.170149 18.340299-13.755223 29.872456-57.382904 20.702307-98.648575 73.500136-98.648576 131.021981v43.62768C5.557666 468.059701 46.823338 520.857531 101.983175 541.420896l13.755224 27.510447s0 2.362008 2.223066 2.362008c-6.947083 18.340299-11.532157 36.680597-11.532157 57.382904 0 36.680597 13.755224 73.500136 41.265672 98.787517l29.872456 29.872456c27.788331 27.510448 62.10692 41.265672 98.926458 41.265672 20.702307 0 39.042605-4.585075 57.382904-11.532158 9.170149 4.585075 20.702307 9.170149 27.510448 11.532158C382.089552 853.761737 434.887381 890.442334 492.270285 890.442334H533.535957c57.382904 0 110.180733-39.042605 130.883039-94.063501 9.170149-4.585075 20.702307-9.170149 29.872456-13.755224 18.340299 9.170149 36.680597 11.532157 57.382903 11.532158 36.680597 0 73.500136-13.755224 98.787517-41.265672l29.872456-29.872456c41.265672-41.265672 52.797829-105.595658 29.872456-156.170421 4.585075-9.170149 9.170149-18.340299 13.755224-29.872455 55.159837-20.702307 91.840434-73.500136 91.840434-130.88304v-41.265671c0-59.744912-39.042605-110.180733-94.0635-130.88304-4.585075-9.170149-9.170149-20.702307-13.755224-29.872456 6.947083-18.340299 11.532157-36.680597 11.532157-57.382903 0-36.680597-13.755224-73.500136-41.265671-98.787517l-27.510448-27.510448c-27.788331-27.649389-62.245862-41.404613-99.065401-41.404613-20.702307 0-39.042605 4.585075-57.382903 11.532157-9.170149-4.585075-18.340299-9.170149-29.872456-13.755224-18.340299-55.159837-71.138128-94.202442-128.521031-94.202442zM333.876798 66.240434c4.585075 0 11.532157-2.362008 16.117232-4.585074l13.755224-6.947083c13.755224-6.947083 27.510448-13.755224 39.042605-18.340299 11.532157-4.585075 20.702307-13.755224 22.925373-25.287381 6.947083-34.457531 36.680597-59.744912 68.915061-59.744912h41.265672c32.095522 0 61.967978 25.287381 68.915061 59.744912 2.362008 11.532157 11.532157 20.702307 22.925373 25.287381 16.117232 4.585075 34.457531 13.755224 52.797829 22.925373 11.532157 4.585075 22.925373 4.585075 34.45753-2.362008 22.925373-16.117232 64.329986-13.755224 87.25536 11.532158l29.872456 29.872456c13.755224 13.755224 20.702307 32.095522 20.702307 50.574762 0 13.755224-4.585075 27.510448-11.532158 39.042605-6.947083 9.170149-6.947083 22.925373-2.362008 34.457531l4.585075 6.947083c6.947083 16.117232 16.117232 32.095522 20.702306 45.850746 4.585075 11.532157 13.755224 20.702307 25.287382 22.925373 32.095522 6.947083 57.382904 36.680597 57.382903 68.915061v43.62768c0 32.095522-25.287381 61.967978-57.382903 68.915061-11.532157 2.362008-20.702307 11.532157-25.287382 22.925373-6.947083 18.340299-13.755224 36.680597-22.925373 52.797829-4.585075 11.532157-4.585075 22.925373 2.362008 34.457531 18.340299 27.510448 13.755224 64.329986-9.170149 89.478426l-32.095522 29.872456c-22.925373 22.925373-61.967978 27.510448-87.25536 9.170149-11.532157-6.947083-22.925373-6.947083-34.45753-2.362008-16.117232 9.170149-34.457531 18.340299-52.797829 22.925373-11.532157 4.585075-20.702307 13.755224-22.925374 25.287381-6.947083 32.095522-36.680597 57.382904-68.915061 57.382904H494.632293c-32.095522 0-61.967978-25.287381-68.915061-57.382904-2.362008-11.532157-11.532157-20.702307-22.925373-25.287381-16.117232-4.585075-32.095522-11.532157-52.797829-22.925373-11.532157-4.585075-22.925373-4.585075-34.457531 2.362008-25.287381 18.340299-64.329986 13.755224-89.478426-9.170149L196.185617 679.251018c-13.755224-13.755224-20.702307-32.095522-20.702306-50.574763 0-13.755224 4.585075-27.510448 11.532157-39.042605 6.947083-9.170149 6.947083-22.925373 2.362008-34.457531-4.585075-6.947083-6.947083-13.755224-11.532157-20.702306-6.947083-11.532157-13.755224-22.925373-16.117232-32.095523-4.585075-11.532157-13.755224-20.702307-25.287381-22.925373-29.872456-6.947083-61.967978-34.457531-61.967979-68.915061v-41.265671c0-34.457531 32.095522-61.967978 61.967979-68.915062 11.532157-2.362008 20.702307-11.532157 25.287381-22.925373 4.585075-13.755224 11.532157-27.510448 18.340298-41.265671l6.947083-11.532158c4.585075-11.532157 4.585075-22.925373-2.362008-34.45753-18.340299-27.510448-13.755224-64.329986 11.532157-89.478426l29.872456-29.872456c22.925373-22.925373 61.967978-27.510448 89.478426-9.170149 4.585075 2.223066 11.393216 4.585075 18.340299 4.585074z m181.31886 96.425509c-126.297965 0-227.308548 101.010583-227.308548 227.308548S389.036635 617.283039 515.195658 617.283039s227.308548-101.010583 227.308548-227.308548c0-124.074898-103.23365-227.308548-227.308548-227.308548z m0 387.925102c-87.25536 0-158.393487-71.138128-158.393487-158.393487s71.138128-158.393487 158.393487-158.393487 158.393487 71.138128 158.393487 158.393487c0.138942 87.25536-71.138128 158.393487-158.393487 158.393487z m0 0"  horiz-adv-x="1024" />

    
    <glyph glyph-name="shouhou" unicode="&#58885;" d="M538.815739 865.016011C271.491995 865.016011 54.326187 645.07137 54.326187 377.747626c0-19.451832 0-39.042605 2.778833-58.494437l-36.12483-13.894166c-8.336499-2.778833-16.672999-11.115332-19.451832-22.230665-2.778833-13.894166 2.778833-25.009498 13.894166-33.345997l102.955766-83.503935c5.557666-5.557666 13.894166-8.336499 19.451832-8.336499 13.894166 0 25.009498 11.115332 27.788331 27.788331l25.009498 128.104206c2.778833 11.115332 0 22.230665-8.336499 30.567164-8.336499 11.115332-22.230665 13.894166-36.124831 11.115333l-27.788331-8.3365v33.345998c0 231.059973 186.598643 417.658616 417.658616 417.658616S953.695522 611.586431 953.695522 380.526459 767.096879-37.132157 536.036906-37.132157c-100.176934 0-197.713976 36.12483-275.660244 102.955766-13.894166 11.115332-36.12483 11.115332-47.379104-2.778833-11.115332-13.894166-11.115332-36.263772 2.778833-47.379104 89.061601-77.946269 200.492809-119.767707 320.260515-119.767707 267.323745 0 487.268385 217.165807 487.268386 487.268385 2.778833 261.90502-214.386974 481.849661-484.489553 481.849661z m0 0M391.259701 277.43175c-8.336499 0-16.672999-2.778833-22.230664-5.557666s-8.336499-11.115332-8.3365-22.230665c0-19.451832 11.115332-30.567164 30.567164-30.567164h114.210041v-97.3981c0-13.894166 2.778833-22.230665 5.557666-27.788331s11.115332-8.336499 25.009498-8.3365c11.115332 0 19.451832 2.778833 25.009498 8.3365 2.778833 5.557666 5.557666 13.894166 5.557667 27.788331v97.3981H683.592944c19.451832 0 30.567164 8.336499 30.567165 27.788331s-11.115332 30.567164-30.567165 30.567164h-114.21004v47.379105H686.371777c19.451832 0 30.567164 8.336499 30.567165 27.788331s-11.115332 30.567164-30.567165 30.567164h-86.282768L705.823609 561.428494c5.557666 8.336499 8.336499 16.672999 8.3365 25.009498 0 5.557666-2.778833 11.115332-11.115333 16.672999s-13.894166 8.336499-22.230665 8.336499-13.894166-5.557666-22.230665-19.451832L538.815739 388.862958l-119.767706 203.271642c-5.557666 11.115332-13.894166 16.672999-22.230665 16.672998s-16.672999-2.778833-22.230665-8.336499-8.336499-11.115332-8.336499-16.672999c0-8.336499 2.778833-13.894166 5.557666-22.230664L477.542469 383.305292h-86.282768c-8.336499 0-16.672999-2.778833-22.230664-5.557666-5.557666-5.557666-8.336499-11.115332-8.3365-22.230665 0-19.451832 11.115332-30.567164 30.567164-30.567165h114.210041v-47.379104h-114.210041z m0 0"  horiz-adv-x="1024" />

    
    <glyph glyph-name="gouwuche" unicode="&#58886;" d="M896.729444 141.685753H310.812483c-15.561465 0-30.567164 13.894166-32.512347 30.428223l-59.60597 413.212483-33.762823 191.461601C178.678969 826.529172 134.356581 865.432836 83.781818 865.432836H39.181547C20.424423 865.432836 5.140841 850.427137 5.140841 832.086839s15.283582-33.484939 34.040706-33.484939h44.600271c16.256174 0 31.678697-14.310991 33.901764-31.400815L151.446404 574.905834l59.328087-411.545183c6.113433-49.741113 50.018996-88.644776 99.89905-88.644776h586.055903c18.757123 0 34.040706 15.005699 34.040705 33.484939s-15.283582 33.484939-34.040705 33.484939zM827.258616 38.313161c-38.070014 0-69.054003-30.428223-69.054003-67.942469s30.983989-67.942469 69.054003-67.942469c38.070014 0 68.915061 30.428223 68.915061 67.942469 0.138942 37.514247-30.845047 67.942469-68.915061 67.942469zM337.211398 38.313161c-38.070014 0-69.054003-30.428223-69.054003-67.942469s30.983989-67.942469 69.054003-67.942469c38.070014 0 69.054003 30.428223 69.054002 67.942469-0.138942 37.514247-30.983989 67.942469-69.054002 67.942469zM992.460244 732.32673c-17.64559 19.729715-41.96038 30.567164-68.498236 30.567164H301.642334c-18.757123 0-34.040706-15.005699-34.040706-33.484939s15.283582-33.484939 34.040706-33.484939H923.962008c6.947083 0 12.782632-2.639891 17.506649-7.919674 7.086024-7.780733 10.698507-20.702307 9.170149-32.929172L895.478969 344.401628c-2.084125-16.256174-17.784532-29.594573-35.152239-29.733514l-491.01981-34.457531c-9.031208-0.694708-17.228765-4.724016-23.203256-11.532157-5.974491-6.808141-8.892266-15.422524-8.197558-24.31479 1.250475-17.367707 16.117232-30.983989 33.901764-30.983989 0.83365 0 1.6673 0 2.50095 0.138942L862.82768 247.837178c50.018996 0 93.785617 38.070014 99.89905 86.699593l55.159837 310.673541c4.029308 32.929172-5.279783 64.60787-25.426323 87.116418z"  horiz-adv-x="1024" />

    
    <glyph glyph-name="sousuo" unicode="&#58887;" d="M954.529172-13.789959l-158.254545 158.393487c61.690095 72.666486 99.0654 166.729986 99.0654 269.546811 0 230.226323-186.598643 416.824966-416.824966 416.824966s-416.824966-186.598643-416.824966-416.824966 186.598643-416.824966 416.824966-416.824966c102.4 0 196.046676 36.95848 268.57422 98.23175l158.393487-158.393487c13.616282-13.616282 35.569064-13.616282 49.185346 0 13.477341 13.477341 13.477341 35.430122-0.138942 49.046405z m-476.153053 80.58616c-191.878426 0-347.354138 155.475712-347.354138 347.354138s155.475712 347.354138 347.354138 347.354139 347.354138-155.475712 347.354139-347.354139-155.475712-347.354138-347.354139-347.354138z m0 0"  horiz-adv-x="1024" />

    
    <glyph glyph-name="shouji" unicode="&#58889;" d="M749.312347 861.681411H276.493894c-56.549254 0-106.151425-49.602171-106.151425-106.151425v-743.059972c0-56.549254 49.602171-106.151425 106.151425-106.151425h472.818453c56.549254 0 106.151425 49.602171 106.151425 106.151425V755.529986c0 56.549254-49.602171 106.151425-106.151425 106.151425z m40.154139-684.565536v-162.83962c-10.837449-19.729715-23.759023-31.817639-44.322388-41.682497H274.826594c-17.089824 10.976391-28.760923 23.897965-37.375305 41.543555V177.115875h552.015197z m0.277883 65.302578l-552.015197-1.111533-0.555766 511.444233c9.170149 19.173948 20.841248 31.817639 38.764722 42.377205h470.456445c19.868657-9.725916 32.373406-21.674898 42.794029-41.265671l0.555767-511.444234zM526.310991 27.753596c0.138942 0 0.138942 0 0 0 28.760923 0 52.103121 23.342198 52.242062 52.242062 0 28.760923-23.342198 52.103121-52.103121 52.103121s-52.103121-23.342198-52.103121-52.103121c0-13.894166 5.418725-27.093623 15.283582-36.819539 9.725916-9.864858 22.786431-15.283582 36.680598-15.422523z m0.138941 4.862958z"  horiz-adv-x="1024" />

    
    <glyph glyph-name="shouye" unicode="&#58890;" d="M384.590502-39.772049V156.691452c0 69.054003 62.801628 122.824423 137.969064 122.824423 75.167436 0 137.969064-53.770421 137.969064-122.824423v-196.602443h174.927544c8.892266 0 14.866757 5.557666 14.866757 10.698508V397.616282c0 12.087924 6.391316 23.203256 16.950882 29.31669 10.420624 6.113433 23.342198 6.113433 33.901764 0 10.420624-6.113433 16.950882-17.228765 16.950882-29.31669v-426.689823c0-44.044505-37.653189-78.363094-82.670285-78.363094H187.293351c-45.017096 0-82.670285 34.318589-82.670285 78.363094V397.616282c0 12.087924 6.391316 23.203256 16.950882 29.31669 10.420624 6.113433 23.342198 6.113433 33.901764 0 10.420624-6.113433 16.950882-17.228765 16.950882-29.31669v-426.689823c0-5.140841 5.974491-10.698507 14.866757-10.698508h197.297151z m67.664586 0h140.470014V156.691452c0 29.316689-30.428223 55.159837-70.304478 55.159837-39.876255 0-70.304478-25.98209-70.304477-55.159837v-196.463501zM55.576662 437.075712c-9.309091-7.780733-21.952782-10.003799-33.345997-5.835549S2.639891 445.27327 0.555767 457.222252s2.362008 24.036906 11.671099 31.817639l443.22388 371.113162c32.512347 29.733514 97.259159 28.344098 125.464315 0.555767l430.024423-372.085754c9.586974-7.780733 14.033107-20.14654 11.810041-32.234464-2.223066-12.087924-10.837449-22.091723-22.508548-25.982089-11.671099-3.890366-24.592673-1.250475-33.623881 7.086024L534.925373 810.828765c-4.16825 4.16825-28.066214 4.585075-35.152239-1.806241L55.576662 437.075712z m0 0"  horiz-adv-x="1024" />

    
    <glyph glyph-name="yiwancheng" unicode="&#58892;" d="M561.46038-58.752063H140.769279c-73.912703 0-134.348842 60.436139-134.348842 134.348842v684.942909C6.420437 834.452392 66.856576 894.888531 140.769279 894.888531h590.884826c73.912703 0 134.348842-60.436139 134.348843-134.348843V397.228186C962.839704 349.990744 1023.414777 250.792115 1021.191838 142.979601c-2.222938-107.673581-66.827087-204.371404-165.46998-247.718704-98.642894-43.208366-213.541025-25.285925-294.261478 45.98704zM798.897993 419.874371V760.539688c0 40.290759-33.621944 67.104954-67.104954 67.104955H140.769279c-40.290759 0-67.104954-33.621944-67.104954-67.104955v-684.942909c0-40.290759 33.621944-67.104954 67.104954-67.104954h365.256574c-55.15666 94.058083-50.016115 211.734887 13.198697 300.513491 63.214812 88.778604 172.694531 132.125904 279.673443 110.869055zM234.827362 626.190846c-18.478176 0-33.621944 15.004835-33.621944 33.621944s15.004835 33.621944 33.621944 33.621944h402.907594c18.478176 0 33.621944-15.004835 33.621944-33.621944s-15.004835-33.621944-33.621944-33.621944H234.827362z m0-228.267992c-18.478176 0-33.621944 15.004835-33.621944 33.621944s15.004835 33.621944 33.621944 33.621944h161.163038c18.478176 0 33.621944-15.004835 33.621944-33.621944s-15.004835-33.621944-33.621944-33.621944H234.827362z m726.206205-249.524841c0 119.482942-96.836756 216.180764-216.180765 216.180764-119.482942 0-216.180764-96.836756-216.180764-216.180764 0-119.482942 96.836756-216.180764 216.180764-216.180764 119.344008 0 216.180764 96.836756 216.180765 216.180764z m-138.933653 83.776993c7.641351 7.641351 18.756043 10.697891 29.176067 7.780284 10.420024-2.778673 18.61711-10.975759 21.395782-21.395782s-0.138934-21.534716-7.780284-29.176067l-124.762421-124.623487c-5.69628-5.69628-13.337631-8.891754-21.395782-8.891754-8.058152 0-15.699503 3.195474-21.395783 8.891754l-72.523367 72.523367c-11.809361 11.809361-11.809361 30.982205 0 42.791565s30.982205 11.809361 42.791565 0l51.127585-51.266518 103.366638 103.366638z m0 0"  horiz-adv-x="1024" />

    
    <glyph glyph-name="wiefukuan" unicode="&#58893;" d="M880.195387 741.357938h-129.771506C732.917232 821.944098 660.945455 882.661601 575.079512 882.661601H189.238535C90.312076 882.661601 9.725916 802.075441 9.725916 703.148982v-679.563636c0-73.778019 60.161737-133.939756 133.939756-133.939756h736.529715c73.778019 0 133.939756 60.161737 133.939755 133.939756V607.27924c0.138942 74.055902-59.883853 134.078697-133.939755 134.078698zM113.098507 779.150068c20.424423 20.424423 47.518046 31.678697 76.001086 31.678697h385.840977c28.621981 0 55.576662-11.254274 76.001085-31.678697 10.976391-10.976391 19.31289-23.897965 24.592673-37.79213H143.665672c-21.258073 0-41.543555-5.0019-59.328087-13.894166 4.446133 19.31289 14.310991 37.097422 28.760922 51.686296z m767.09688-822.5346H143.665672c-36.95848 0-66.969878 30.011398-66.969878 66.969878V607.27924c0 36.95848 30.011398 66.969878 66.969878 66.969878h736.529715c36.95848 0 66.969878-30.011398 66.969878-66.969878v-109.347083h-380.700136c-39.598372 0-71.832836-32.234464-71.832836-71.832835v-208.690367c0-39.598372 32.234464-71.832836 71.832836-71.832836h380.700136v-122.268656c0-36.680597-30.011398-66.691995-66.969878-66.691995z m66.969878 469.622795v-208.690366H602.451018c-19.729715 0-35.846947 16.117232-35.846947 35.846947V390.252374c0 19.729715 16.117232 35.846947 35.846947 35.846948h344.714247z m0 0M623.014383 321.89308c0-29.733514 24.175848-53.909362 53.909362-53.909362s53.909362 24.175848 53.909362 53.909362-24.175848 53.909362-53.909362 53.909362-53.909362-24.175848-53.909362-53.909362z m0 0"  horiz-adv-x="1024" />

    
    <glyph glyph-name="wode" unicode="&#58895;" d="M895.61791-80.620896c-3.473541 62.523745-16.672999 116.710991-40.29308 165.618454-22.508548 46.267571-54.743012 88.089009-98.23175 127.548439 82.948168 72.527544 130.466214 177.428494 130.466214 288.442877C887.281411 711.34654 718.189417 882.522659 510.749525 882.522659c-207.578833 0-376.531886-171.037178-376.531886-381.394844-0.138942-111.709091 47.795929-217.026866 131.716689-289.693351-43.210855-39.45943-75.167436-81.002985-97.3981-127.131615-23.620081-48.629579-36.680597-102.538942-39.876255-164.784803-0.416825-8.475441 2.917775-16.81194 9.170149-23.342198l0.416825-0.416825c5.696608-6.252374 13.755224-9.864858 23.064315-10.003799h0.555766c116.988874-0.138942 235.645047-0.138942 350.410855-0.138942s233.560923 0 350.271913 0.138942h0.83365c9.586974 0.138942 17.64559 3.890366 23.342199 10.559566 5.974491 6.391316 9.170149 14.588874 8.892265 23.064314z m-697.487109 33.484939c12.643691 95.730801 56.827137 167.285753 147.139213 238.423881 9.448033 7.502849 13.338399 17.367707 11.115332 27.927273-2.639891 12.087924-13.338399 22.925373-26.259973 26.398914-81.002985 58.911262-129.354681 154.225237-129.354681 255.235821 0 173.260244 139.080597 314.147083 310.117775 314.147083s310.117775-140.886839 310.117775-314.147083c0-102.4-49.324288-198.408684-131.994573-257.181004-11.671099-5.140841-20.14654-15.700407-21.674898-26.954681-1.250475-9.725916 2.778833-18.896065 11.532157-25.704206 90.451018-71.416011 134.634464-142.970963 147.278155-238.423881-69.470828 0.138942-138.663772 0-207.995658 0H352.633921c-51.408412 0.277883-102.955767 0.277883-154.50312 0.277883zM515.3346 296.466757c55.993487 0 102.122117 31.539756 126.297964 86.699593 5.0019 11.393216 4.029308 23.48114-2.639891 33.762822-6.808141 10.420624-18.47924 17.089824-29.733514 17.089824-11.115332 0-20.424423-6.530258-25.426323-17.784532-14.727815-33.345997-40.709905-52.519946-71.554953-52.519946-31.400814 0-62.245862 20.285482-80.725101 52.936771-5.974491 10.559566-15.561465 16.395115-26.81574 16.395115-12.226866 0-24.592673-7.224966-30.845047-17.923473-5.83555-10.142741-5.83555-21.535957 0.277883-32.373406 30.150339-53.214654 84.198643-86.282768 141.164722-86.282768z"  horiz-adv-x="1024" />

    
    <glyph glyph-name="yiwancheng1" unicode="&#58896;" d="M990.792944 652.435278L904.093351 819.443148C882.279512 861.264586 828.370149 894.054817 781.268928 894.054817H247.455088c-47.101221 0-101.149525-32.512347-123.102306-74.055902L37.514247 656.325645C18.618182 620.756581 3.890366 561.150611 3.890366 520.857531v-549.653189c0-53.631479 43.62768-97.259159 97.259159-97.259159H926.740841c53.631479 0 97.3981 43.62768 97.398101 97.259159V517.106106c-0.138942 40.29308-14.727815 99.760109-33.345998 135.329172z m-743.337856 173.954953h533.81384c22.508548 0 52.381004-18.201357 62.801628-38.070014L930.909091 621.312347c3.3346-6.530258 6.947083-15.283582 10.420624-25.982089H85.727001c4.029308 12.643691 7.919674 22.369607 11.671099 29.455631l86.699593 163.534328c10.559566 19.868657 40.709905 38.070014 63.357395 38.070014z m708.880326-855.185889c0-16.395115-13.338399-29.594573-29.594573-29.594573H101.288467c-16.395115 0-29.594573 13.338399-29.594573 29.594573V520.996472c0 1.6673 0.277883 3.751425 0.416825 5.696608 0 0.277883 0.138942 0.694708 0.138942 0.972592h883.252103c0.138942-0.694708 0.138942-1.389417 0.277883-2.084125 0.277883-2.917775 0.694708-5.974491 0.694708-8.475441v-545.901764zM425.161465 313.834464H234.533514c-18.618182 0-33.762822-15.14464-33.762822-33.762822s15.14464-33.762822 33.762822-33.762822H425.161465c18.618182 0 33.762822 15.14464 33.762823 33.762822S443.779647 313.834464 425.161465 313.834464zM832.955224 361.074627c-6.252374 5.83555-14.449932 9.031208-23.064315 9.031207-7.780733 0-15.14464-2.639891-21.119132-7.363907v0.555766L626.765807 190.315332l-63.079511 62.94057c-6.391316 6.391316-14.866757 9.864858-23.897965 9.864858s-17.506649-3.473541-23.897965-9.864858-9.864858-14.866757-9.864857-23.897964 3.473541-17.506649 9.864857-23.897965l87.116418-86.838535c6.391316-6.391316 14.866757-9.864858 23.897965-9.864857 4.446133 0 9.031208 1.111533 13.616282 3.195658 5.279783 1.806242 9.864858 4.724016 13.338399 8.336499l180.763094 193.128901c12.643691 13.477341 11.948982 34.874355-1.6673 47.656988zM328.735957 178.36635h-95.175034c-18.618182 0-33.762822-15.14464-33.762823-33.762822s15.14464-33.762822 33.762823-33.762822h95.175034c18.618182 0 33.762822 15.14464 33.762822 33.762822 0.138942 18.618182-15.14464 33.762822-33.762822 33.762822z"  horiz-adv-x="1024" />

    
    <glyph glyph-name="xinwen" unicode="&#58897;" d="M994.683311 646.460787c-18.896065 18.896065-43.905563 29.316689-70.721303 29.316689h-68.915061v68.637178c0 80.308277-65.302578 145.471913-145.471913 145.471913H146.166621C65.997286 890.025509 0.694708 824.722931 0.694708 744.414654v-671.782904C0.694708-34.214383 87.672185-121.052917 194.518318-121.052917h685.399185c79.335685 0 143.943555 64.60787 143.943555 143.943555v552.987788c0 26.676798-10.420624 51.686296-29.177747 70.582361zM194.518318-55.889281c-70.860244 0-128.659973 57.660787-128.659973 128.659973V744.414654c0 44.322388 35.985889 80.308277 80.308276 80.308277h563.408413c44.322388 0 80.308277-35.985889 80.308277-80.308277v-677.757395c0-67.664586-55.020896-122.685482-122.685482-122.685482h-16.117232v0.138942H194.518318z m764.179104 631.767707v-553.265672c0-43.488738-35.29118-78.779919-78.779919-78.779918h-70.582361c29.594573 34.318589 45.850746 77.807327 45.850747 122.824423V610.61384H923.962008c19.173948 0 34.735414-15.561465 34.735414-34.735414zM227.864315 558.232836h399.874084c17.923474 0 32.651289 14.588874 32.651289 32.651289 0 17.923474-14.588874 32.651289-32.512347 32.651289H227.864315c-17.923474 0-32.651289-14.588874-32.651289-32.651289s14.727815-32.651289 32.651289-32.651289zM627.877341 210.322931H227.864315c-17.923474 0-32.651289-14.588874-32.651289-32.651289 0-17.923474 14.588874-32.651289 32.651289-32.651289h399.874084c17.923474 0 32.651289 14.588874 32.651289 32.651289s-14.588874 32.651289-32.512347 32.651289zM227.864315 338.566079h399.874084c17.923474 0 32.651289 14.588874 32.651289 32.651289 0 17.923474-14.588874 32.651289-32.512347 32.651289H227.864315c-17.923474 0-32.651289-14.588874-32.651289-32.651289 0-17.923474 14.727815-32.651289 32.651289-32.651289z"  horiz-adv-x="1024" />

    
    <glyph glyph-name="youhuiquan" unicode="&#58898;" d="M1009.689009 592.273541c4.585075 2.223066 7.363908 6.947083 7.363908 11.948983v128.798914c0 29.455631-24.036906 53.492537-53.492537 53.492538h-900.341927C33.762822 786.652917 9.725916 762.616011 9.725916 733.16038V604.222524c0-5.140841 2.778833-9.725916 7.363908-11.948983 79.891452-39.737313 129.632564-119.906649 129.632564-209.107191s-49.602171-169.50882-129.632564-209.246133c-4.585075-2.223066-7.502849-6.947083-7.50285-12.087924v-128.798914c0-29.455631 24.036906-53.492537 53.492538-53.492538h900.341926c29.455631 0 53.492537 24.036906 53.492538 53.492538v128.937856c0 5.140841-2.778833 9.725916-7.363908 11.948982-79.891452 39.737313-129.632564 119.906649-129.632565 209.107191 0.138942 89.200543 49.741113 169.369878 129.771506 209.246133zM813.086567 383.027408c0-102.677883 51.130529-196.880326 136.996472-252.318046v-84.337585H76.695794v84.337585c85.865943 55.43772 136.996472 149.640163 136.996472 252.318046S162.561737 579.768792 76.695794 635.206513V719.544098h873.387245v-84.337585c-85.865943-55.43772-136.996472-149.640163-136.996472-252.179105zM632.87924 393.309091c18.47924 0 33.484939 15.005699 33.484939 33.484939s-15.005699 33.484939-33.484939 33.484939h-39.042605l55.854545 55.854545c6.391316 6.391316 9.864858 14.727815 9.864858 23.759023 0 8.892266-3.473541 17.367707-9.725916 23.48114-6.252374 6.391316-14.588874 9.864858-23.620081 9.864858s-17.506649-3.473541-23.620082-9.864858l-89.478426-89.478426-89.478426 89.617368c-6.391316 6.252374-14.727815 9.725916-23.620081 9.725916-9.031208 0-17.506649-3.473541-23.620082-9.864858-6.391316-6.391316-9.864858-14.727815-9.864857-23.759023 0-8.892266 3.473541-17.367707 9.864857-23.620081l55.854546-55.854546H393.204885c-18.47924 0-33.484939-15.005699-33.484939-33.484939s15.005699-33.484939 33.484939-33.484939h86.143826V361.074627h-86.560651c-18.47924 0-33.484939-15.005699-33.484939-33.484939s15.005699-33.484939 33.484939-33.484939H479.348711v-67.525645c0-18.47924 15.005699-33.484939 33.484939-33.484938s33.484939 15.005699 33.484939 33.484938v67.525645h86.560651c18.47924 0 33.484939 15.005699 33.484939 33.484939S651.35848 361.074627 632.87924 361.074627h-86.560651v32.095522h86.560651z"  horiz-adv-x="1024" />

    
    <glyph glyph-name="yue" unicode="&#58899;" d="M986.763636 317.030122c-16.672999 82.670285-99.0654 237.173406-258.57042 341.101764 31.122931 41.96038 43.766621 84.75441 34.45753 121.157123C737.78019 875.575577 621.624966 888.497151 511.444233 888.497151h-0.138941c-110.319674 0-226.474898-12.921574-251.206513-109.208142-9.448033-36.95848 3.612483-80.447218 35.708005-122.963364-157.559837-103.928358-238.979647-257.181004-255.652646-339.295523-22.091723-109.347083-1.528358-206.745183 59.467029-281.356852 79.057802-96.425509 225.919132-152.696879 404.737042-155.892537 0.972592-0.138942 1.945183-0.277883 2.917775-0.277884l6.252374 0.138942 6.252375-0.138942c0.972592 0 1.945183 0.138942 3.056716 0.277884 178.678969 3.195658 325.67924 59.467028 404.737042 155.892537 60.717503 74.611669 81.280868 172.009769 59.189145 281.356852z m-110.319674-239.813297c-67.803528-82.809227-199.937042-130.605156-362.915604-131.994573-163.117503 1.389417-295.251018 49.185346-363.054545 131.994573-48.768521 59.60597-64.052103 135.884939-45.850747 226.752782 14.588874 72.666486 96.56445 222.306649 253.985346 314.008141 3.195658 1.806242 5.974491 4.307191 8.3365 7.224966l1.111533 0.694708c6.252374 6.113433 9.725916 14.449932 9.864858 23.203256 0 8.753324-3.3346 17.089824-9.448033 23.342199-32.651289 33.207056-50.157938 68.776119-44.600271 90.451017 7.641791 29.594573 35.846947 59.744912 187.432293 59.744912h0.138941c151.585346 0 179.790502-30.150339 187.432293-59.744912 5.557666-21.81384-11.948982-57.382904-44.600271-90.589959-6.113433-6.252374-9.586974-14.588874-9.448032-23.342198 0-8.753324 3.612483-17.089824 9.864857-23.203257 3.751425-3.473541 8.336499-6.113433 13.199457-7.502849 0.138942-0.138942 0.277883-0.277883 0.416825-0.277883 157.420896-91.840434 239.257531-241.341655 253.846405-314.008141 18.47924-90.728901 3.056716-167.00787-45.711805-226.752782zM621.069199 338.843962c17.64559 0.83365 31.400814 15.283582 31.400815 32.929172s-13.894166 32.095522-31.400815 32.929173h-50.991587l58.911262 55.43772c6.391316 5.974491 10.003799 14.172049 10.281682 22.925373 0.277883 8.753324-2.917775 17.228765-9.031207 23.48114-5.974491 6.391316-14.172049 10.142741-22.925373 10.281683-8.753324 0.277883-17.228765-2.917775-23.48114-8.892266L514.917775 443.050204l-69.054003 64.885753c-13.199457 12.504749-34.040706 11.810041-46.406513-1.389417-12.504749-13.199457-11.810041-34.040706 1.389417-46.406513l58.911262-55.43772H405.709634c-17.64559-0.83365-31.400814-15.283582-31.400814-32.929173s13.894166-32.095522 31.400814-32.929172h76.834735v-49.046404H405.709634c-17.367707-1.111533-30.706106-15.561465-30.706106-32.929173s13.477341-31.678697 30.706106-32.929172h76.834735v-74.750611c-0.555767-12.087924 5.557666-23.620081 15.97829-29.872455s23.48114-6.252374 33.901764 0 16.534057 17.64559 15.978291 29.872455v74.750611H621.069199c18.201357 0 32.929172 14.727815 32.929173 32.929172s-14.727815 32.929172-32.929173 32.929173h-72.666485V338.843962H621.069199z m0 0"  horiz-adv-x="1024" />

    
    <glyph glyph-name="biaoqian" unicode="&#58900;" d="M978.566079 387.056716L510.749525-80.898779c-24.870556-24.870556-57.93867-38.62578-93.090909-38.62578-35.152239 0-68.220353 13.616282-93.229851 38.62578L47.101221 196.428765c-24.870556 25.009498-38.62578 58.077612-38.62578 93.229851 0 35.152239 13.755224 68.220353 38.62578 93.229851L514.917775 850.566079C546.735414 882.383718 593.836635 896 637.742198 885.857259l225.224423-51.964179c48.768521-11.254274 87.533243-50.018996 98.787517-98.787517L1013.718318 509.742198c10.281682-44.46133-2.917775-90.312076-35.152239-122.685482z m-30.567164 107.540842l-51.96418 225.363365c-5.418725 23.759023-24.31479 42.655088-48.073812 48.073812L622.597558 819.998915c-4.862958 1.111533-9.725916 1.6673-14.588874 1.667299-17.228765 0-33.207056-6.669199-45.433921-18.896065L94.758209 335.092537c-12.087924-12.226866-18.896065-28.344098-18.896065-45.433921 0-17.228765 6.669199-33.345997 18.896065-45.433921l277.188602-277.327544c24.175848-24.175848 66.691995-24.175848 91.006785 0L930.770149 434.713704c15.839349 15.700407 22.230665 38.208955 17.228766 59.883854z m-235.922931-17.645591c-28.621981 0-55.576662 11.115332-75.862144 31.400815-20.285482 20.285482-31.400814 47.240163-31.400814 75.862143s11.115332 55.576662 31.400814 75.862144c40.29308 40.432022 111.153324 40.570963 151.585346 0 20.285482-20.285482 31.400814-47.240163 31.400814-75.862144s-11.115332-55.576662-31.400814-75.862143c-20.14654-20.285482-47.101221-31.400814-75.723202-31.400815z m28.066214 135.329173c-7.502849 7.502849-17.506649 11.671099-28.205156 11.671099-10.698507 0-20.563365-4.16825-28.205156-11.671099-7.502849-7.502849-11.671099-17.506649-11.671099-28.066215 0-10.698507 4.16825-20.702307 11.671099-28.205156 14.727815-14.727815 41.543555-14.727815 56.27137 0 7.502849 7.502849 11.671099 17.506649 11.671099 28.205156 0.138942 10.559566-4.029308 20.563365-11.532157 28.066215z m0 0"  horiz-adv-x="1024" />

    
    <glyph glyph-name="chanpin" unicode="&#58901;" d="M967.033921 379.692809c-4.029308 0-8.058616-0.694708-11.81004-2.362008L512.138942 189.203799c-1.528358-0.555767-3.195658-0.555767-4.585075 0L69.331886 377.469742c-3.890366 1.528358-7.919674 2.362008-12.087924 2.362008-12.782632 0-24.31479-7.641791-29.455631-19.31289-6.808141-15.839349 0.416825-34.596472 16.256174-41.821438l438.360922-188.404885 0.694709-0.277883c8.336499-3.473541 17.228765-5.140841 26.259973-5.140841h0.277883c9.309091 0 18.340299 1.806242 26.954681 5.279783l443.640706 188.404884c15.97829 7.224966 23.064315 25.565265 16.256173 41.682497-5.0019 11.810041-16.534057 19.451832-29.455631 19.451832zM967.033921 209.489281c-4.029308 0-8.058616-0.694708-11.81004-2.223067L512.277883 19.000271c-1.528358-0.555767-3.195658-0.555767-4.585074 0L69.331886 207.127273c-3.890366 1.528358-7.919674 2.362008-12.087924 2.362008-12.782632 0-24.31479-7.641791-29.455631-19.31289-6.808141-15.839349 0.416825-34.596472 16.256174-41.821438l438.360922-188.404885 0.694709-0.277883c8.336499-3.473541 17.228765-5.140841 26.259973-5.140842h0.277883c9.309091 0 18.340299 1.806242 26.954681 5.279783l443.640706 188.404885c15.97829 7.224966 23.064315 25.565265 16.256173 41.682496-5.0019 11.948982-16.534057 19.590773-29.455631 19.590774zM980.233379 618.672456L536.453731 807.077341c-8.475441 3.473541-17.506649 5.279783-26.676797 5.279782s-18.201357-1.806242-26.676798-5.279782L44.46133 618.672456C18.062415 607.696065 0.972592 582.269742 0.972592 553.647761S18.062415 499.599457 44.46133 488.623066l438.083039-188.265943 0.694708-0.277883c8.336499-3.473541 17.228765-5.140841 26.259973-5.140841h0.138942c9.309091 0 18.340299 1.806242 27.093623 5.418724l443.501764 188.265943c26.398915 10.976391 43.488738 36.402714 43.488738 65.024695s-17.089824 54.048304-43.488738 65.024695zM64.885753 553.786703c0 2.639891 1.528358 5.0019 4.16825 5.974491l438.499864 188.265943c0.694708 0.277883 1.528358 0.416825 2.223067 0.416825 0.83365 0 1.528358-0.138942 2.223066-0.416825L955.640706 559.761194c2.362008-0.972592 3.890366-3.3346 3.890366-5.974491s-1.528358-5.0019-3.890366-5.974491L512.277883 359.407327c-1.528358-0.555767-3.195658-0.555767-4.585074 0L69.470828 547.534328l-0.555767 0.277884c-2.50095 0.972592-4.029308 3.3346-4.029308 5.974491z"  horiz-adv-x="1024" />

    
    <glyph glyph-name="daifahuo" unicode="&#58902;" d="M968.56228 574.350068L911.457259 626.314247c-31.261872 28.344098-71.554953 43.905563-113.654274 43.905563h-155.614654v77.946269c0 62.801628-51.130529 113.932157-113.932157 113.932157h-412.656717c-62.801628 0-113.932157-51.130529-113.932157-113.932157v-718.4673h127.270556c1.111533-70.304478 58.77232-127.270556 129.354681-127.270556s128.243148 56.966079 129.354681 127.270556h250.372863c1.111533-70.304478 58.77232-127.270556 129.354682-127.270556s128.243148 56.966079 129.354681 127.270556H1024V449.024695c0 47.656988-20.14654 93.229851-55.43772 125.325373zM258.292537 93.195115c33.901764 0 61.551153-27.649389 61.551154-61.551153s-27.649389-61.551153-61.551154-61.551153-61.551153 27.649389-61.551153 61.551153 27.649389 61.551153 61.551153 61.551153z m-111.292266 4.16825H69.609769V748.027137c0 25.426323 20.702307 46.12863 46.12863 46.12863h412.656716c25.426323 0 46.12863-20.702307 46.12863-46.12863v-650.663772H369.723745C346.381547 136.683853 303.8654 160.998643 258.431479 160.998643c-45.711805 0-88.227951-24.31479-111.431208-63.635278z m809.196201 351.66133v-97.120217h-123.102306V596.024966c11.948982-4.446133 22.925373-11.115332 32.651289-20.007598l57.10502-51.964179c21.258073-19.173948 33.345997-46.406513 33.345997-75.028494zM767.374763 93.195115c33.901764 0 61.551153-27.649389 61.551153-61.551153s-27.649389-61.551153-61.551153-61.551153-61.551153 27.649389-61.551154 61.551153 27.649389 61.551153 61.551154 61.551153z m-111.292266 4.16825h-13.755224V602.277341h123.102306v-318.176391h190.905835v-186.737585h-77.390502c-23.342198 39.320488-65.858345 63.635278-111.292266 63.635278-45.850746 0-88.366893-24.31479-111.570149-63.635278z"  horiz-adv-x="1024" />

    
    <glyph glyph-name="daohang" unicode="&#58903;" d="M827.953324 13.85943c-3.612483 0-7.363908 0.555767-10.837449 1.806242L44.878155 280.76635c-12.504749 4.307191-21.397015 15.700407-22.369607 28.899864-1.111533 13.199457 5.83555 25.843148 17.506649 32.095523L955.084939 832.503664c11.254274 6.113433 25.14844 5.140841 35.569064-2.362009 10.420624-7.641791 15.422524-20.563365 13.060515-33.207055l-142.970963-755.842605c-3.056716-15.839349-16.81194-27.232564-32.790231-27.232565z m-689.15061 305.115875l663.446404-227.725373 122.824423 649.552239L138.802714 318.975305z m0 0M427.523474-68.949796c-18.47924 0-33.345997 14.866757-33.345998 33.345997V184.757666c0 8.058616 2.917775 15.97829 8.3365 22.091723L933.826866 809.856174c12.365807 12.643691 32.651289 13.338399 45.989688 1.6673 13.338399-11.810041 15.14464-31.817639 4.029308-45.711805L460.869471 172.113976v-207.717775c0-18.47924-14.866757-33.345997-33.345997-33.345997z m0 0"  horiz-adv-x="1024" />

    
    <glyph glyph-name="dianpu" unicode="&#58904;" d="M1021.221167 497.654274c0 7.919674 0 9.864858-113.237449 309.978833-10.837449 28.621981-42.099322 50.296879-73.083311 50.296879H188.543826c-30.845047 0-62.245862-21.674898-72.944369-50.157937C2.362008 507.797015 2.362008 505.573948 2.362008 497.654274c0-57.10502 25.843148-107.818725 65.997286-142.970963-0.138942-0.972592-0.555767-2.084125-0.555766-3.195658v-348.604614c0-52.381004 42.655088-95.036092 95.175034-95.036092h697.764993c52.519946 0 95.175034 42.516147 95.175034 95.036092v348.743555c0 1.111533-0.555767 2.223066-0.694708 3.195658 40.154138 35.013297 65.997286 85.727001 65.997286 142.832022z m-128.659973-494.771235c0-17.367707-14.172049-31.678697-31.817639-31.678697H162.83962c-17.506649 0-31.817639 14.172049-31.817639 31.678697V318.141655c20.285482-7.224966 41.682497-11.671099 64.329986-11.671099 97.3981 0 159.366079 67.10882 157.559838 70.026595 2.50095-2.778833 62.94057-67.803528 159.643962-69.748711 95.036092 1.806242 155.614654 66.969878 153.66947 69.748711 2.639891-2.778833 64.60787-70.026594 162.005971-70.026595 22.64749 0 44.044505 4.585075 64.191044 11.671099v-315.258616z m-64.329986 367.083854c-68.498236 0-114.626866 48.768521-114.904749 49.324287-11.671099 12.782632-27.927273 20.14654-44.878155 20.14654-16.950882 0-33.207056-7.224966-44.739213-20.007598-0.416825-0.416825-45.29498-47.795929-111.431208-49.185346-67.10882 1.250475-111.986974 48.768521-112.264857 48.907463-23.342198 25.565265-66.553053 25.426323-89.617368 0.138941-0.416825-0.416825-46.406513-49.324288-114.904749-49.324287-69.748711 0-126.853731 54.881954-129.215739 123.102306 9.864858 28.483039 69.470828 186.876526 109.069199 292.194302 1.528358 4.029308 9.170149 9.170149 13.477341 9.170149h646.495522c4.446133 0 11.948982-5.140841 13.477341-9.170149 39.876255-105.317775 99.204342-263.711262 109.069199-292.05536-2.778833-68.498236-59.744912-123.241248-129.632564-123.241248z"  horiz-adv-x="1024" />

    
    <glyph glyph-name="fanhui" unicode="&#58905;" d="M755.008955 737.884396L375.976119 370.800543l379.032836-366.944912c13.199457-14.310991 13.199457-36.402714 0-50.713704-6.113433-6.669199-14.866757-10.559566-23.897964-10.559566s-17.784532 3.751425-23.897965 10.559566L303.587517 343.70692c-6.808141 7.363908-10.281682 17.228765-9.586974 27.093623-0.416825 9.725916 2.50095 19.590773 9.586974 27.232564L707.074084 788.5981c6.113433 6.669199 14.866757 10.559566 23.897965 10.559566 9.170149 0 17.784532-3.751425 23.897965-10.559566 13.338399-14.033107 13.338399-36.680597 0.138941-50.713704z m0 0"  horiz-adv-x="1024" />

    
    <glyph glyph-name="fenlei" unicode="&#58906;" d="M363.610312 870.573677H141.998372c-66.414111 0-116.294166-49.880054-116.294166-110.875441v-221.61194c0-60.995387 49.880054-110.875441 110.875441-110.875441h221.611941c60.995387 0 110.875441 49.880054 110.87544 110.875441V759.698236c5.279783 60.995387-44.600271 110.875441-105.456716 110.875441z m44.183446-326.929715c0-33.207056-27.649389-55.298779-55.298778-55.298779H153.113704c-33.207056 0-55.298779 27.649389-55.298779 55.298779V748.721845c0 33.207056 27.649389 55.298779 55.298779 55.298779h199.520217c33.207056 0 55.298779-27.649389 55.298779-55.298779l-0.138942-205.077883z m482.127545 326.929715H668.309362c-60.995387 0-110.875441-49.880054-110.875441-110.875441v-221.61194c0-60.995387 49.880054-110.875441 110.875441-110.875441h221.611941c60.995387 0 110.875441 49.880054 110.875441 110.875441V759.698236c5.418725 60.995387-49.880054 110.875441-110.875441 110.875441z m49.741112-326.929715c0-33.207056-27.649389-55.298779-55.298779-55.298779H684.982361c-33.207056 0-55.298779 27.649389-55.298779 55.298779V748.721845c0 33.207056 27.649389 55.298779 55.298779 55.298779h199.381275c33.207056 0 55.298779-27.649389 55.298779-55.298779v-205.077883zM363.610312 338.70502H141.998372c-60.995387 0-110.875441-49.880054-110.875441-110.875441v-221.61194c0-60.995387 49.880054-110.875441 110.875441-110.875441h221.61194c60.995387 0 110.875441 49.880054 110.875441 110.875441V227.968521c-0.138942 60.856445-50.018996 110.736499-110.875441 110.736499z m44.183446-326.929715c0-33.207056-27.649389-55.298779-55.298778-55.298779H153.113704c-33.207056 0-55.298779 27.649389-55.298779 55.298779V211.295522c0 33.207056 27.649389 55.298779 55.298779 55.298779h199.520217c33.207056 0 55.298779-27.649389 55.298779-55.298779l-0.138942-199.520217z m482.127545 326.929715H668.309362c-60.995387 0-110.875441-49.880054-110.875441-110.875441v-221.61194c0-60.995387 49.880054-110.875441 110.875441-110.875441h221.611941c60.995387 0 110.875441 49.880054 110.875441 110.875441V227.968521c5.418725 60.856445-49.880054 110.736499-110.875441 110.736499z m49.741112-326.929715c0-33.207056-27.649389-55.298779-55.298779-55.298779H684.982361c-33.207056 0-55.298779 27.649389-55.298779 55.298779V211.295522c0 33.207056 27.649389 55.298779 55.298779 55.298779h199.381275c33.207056 0 55.298779-27.649389 55.298779-55.298779v-199.520217z m0 0"  horiz-adv-x="1024" />

    
    <glyph glyph-name="faxian" unicode="&#58908;" d="M512 880.994301c-275.104478 0-497.966893-222.862415-497.966893-497.966893s222.862415-497.966893 497.966893-497.966892 497.966893 222.862415 497.966893 497.966892c0 274.965536-222.862415 497.966893-497.966893 497.966893z m0-935.355224C270.936228-54.360923 74.750611 141.268928 74.750611 383.027408S270.936228 820.137856 512 820.137856c241.619539 0 437.249389-195.490909 437.249389-437.249389S753.75848-54.360923 512-54.360923z m0 0M744.866214 666.88521l-238.701764-132.272456-93.646675-52.381004-52.381004-93.646675L227.864315 149.883311c-9.031208-15.839349-4.307191-32.651289 6.391316-43.349797 10.837449-10.837449 26.954681-15.005699 43.349796-6.391316L516.862958 231.858887l94.063501 51.964179 51.964179 94.063501L794.746269 617.144098c8.614383 16.395115 4.307191 32.651289-6.391316 43.349796-10.976391 10.559566-27.649389 15.422524-43.488739 6.391316z m-127.131614-243.981546l-30.428223-55.298779-20.98019-39.181547-39.181547-20.98019-55.298778-30.428223-149.779105-82.948168 83.226052 149.36228 30.428222 55.298778L457.118046 437.492537l38.62578 21.397015 55.298779 30.428223 149.36228 83.226051-82.670285-149.640162z m0 0M466.288195 383.444233c0-25.14844 20.424423-45.572863 45.572863-45.572863 25.14844 0 45.572863 20.424423 45.572863 45.572863 0 25.14844-20.424423 45.572863-45.572863 45.572863-25.14844 0-45.572863-20.424423-45.572863-45.572863z m0 0"  horiz-adv-x="1024" />

    
    <glyph glyph-name="fenlei1" unicode="&#58909;" d="M968.006513 588.8H584.249661c-18.896065 0-34.318589-15.422524-34.318589-34.318589s15.422524-34.318589 34.318589-34.318589h383.61791c18.896065 0 34.318589 15.422524 34.318589 34.318589 0 19.035007-15.283582 34.318589-34.179647 34.318589zM584.249661 722.739756h383.61791c18.896065 0 34.318589 15.422524 34.318589 34.318589s-15.422524 34.318589-34.318589 34.318589H584.249661c-18.896065 0-34.318589-15.422524-34.318589-34.318589 0.138942-19.035007 15.422524-34.318589 34.318589-34.318589zM968.006513 235.47137H584.249661c-18.896065 0-34.318589-15.422524-34.318589-34.318588s15.422524-34.318589 34.318589-34.318589h383.61791c18.896065 0 34.318589 15.422524 34.318589 34.318589 0 19.035007-15.283582 34.318589-34.179647 34.318588zM392.232293 871.824152h-280.662144c-47.934871 0-86.977476-39.042605-86.977476-86.977476v-280.662144c0.694708-22.786431 10.003799-44.044505 26.398915-59.883854 16.395115-15.839349 37.931072-24.592673 60.578561-24.592673V423.598372v-3.890367h280.662144c45.989688 1.389417 83.08711 38.486839 84.476527 84.615469V784.846676c0 22.786431-8.753324 44.322388-24.592673 60.717503-15.839349 16.256174-37.097422 25.704206-59.883854 26.259973zM93.090909 784.846676c0 10.142741 8.336499 18.47924 18.47924 18.47924h280.384261c9.309091-1.111533 16.256174-9.031208 16.256173-18.47924v-280.662144c0-9.448033-6.947083-17.228765-16.256173-18.340299H111.570149c-10.142741 0-18.47924 8.336499-18.47924 18.479241V784.846676zM968.006513 33.728087H584.249661c-18.896065 0-34.318589-15.422524-34.318589-34.318589s15.422524-34.318589 34.318589-34.318589h383.61791c18.896065 0 34.318589 15.422524 34.318589 34.318589s-15.283582 34.318589-34.179647 34.318589zM392.232293 346.485753h-280.662144c-22.786431 0-44.322388-8.753324-60.578561-24.592673s-25.704206-37.097422-26.398915-60.022795v-280.662144c0-47.934871 39.042605-86.977476 86.977476-86.977476h280.662144c47.656988 1.389417 85.58806 41.265672 84.476527 88.783718V261.870285c-1.250475 46.12863-38.347897 83.226052-84.476527 84.615468zM93.090909 261.592402c1.111533 9.309091 8.892266 16.256174 18.340299 16.256173h280.940027c9.309091 0 17.228765-6.947083 18.340298-16.256173v-278.578019c0-10.142741-8.336499-18.47924-18.47924-18.479241h-280.662144c-10.142741 0-18.47924 8.336499-18.47924 18.479241V261.592402z"  horiz-adv-x="1024" />

    
    <glyph glyph-name="fenxiang" unicode="&#58910;" d="M907.844776 241.445862V87.359566c0-37.653189-30.845047-68.498236-68.498236-68.498236H188.960651c-37.653189 0-68.498236 30.845047-68.498236 68.498236V669.38616c0 37.653189 30.845047 68.498236 68.498236 68.498236h222.584532c18.896065 0 34.179647 15.422524 34.179647 34.179647s-15.422524 34.179647-34.179647 34.179648H188.960651c-75.306377 0-136.996472-61.690095-136.996472-136.996473v-582.026594c0-75.306377 61.690095-136.996472 136.996472-136.996472h650.524831c75.306377 0 136.996472 61.690095 136.996472 136.996472v154.225238c0 18.896065-15.422524 34.179647-34.179647 34.179647-19.035007 0.138942-34.457531-15.283582-34.457531-34.179647z m0 0M859.909905 737.884396H633.990773c-18.896065 0-34.179647 15.422524-34.179647 34.179647s15.422524 34.179647 34.179647 34.179648h308.172592c10.281682 0 18.896065-3.473541 23.897965-10.281683 6.808141-5.140841 10.281682-13.755224 10.281682-23.897965V463.891452c0-18.896065-15.422524-34.179647-34.179647-34.179647-18.896065 0-34.179647 15.422524-34.179647 34.179647V689.949525L397.789959 178.227408c-13.755224-13.755224-34.179647-13.755224-47.934871 0-13.755224 13.755224-13.755224 34.179647 0 47.934872l510.054817 511.722116z m0 0"  horiz-adv-x="1024" />

    
    <glyph glyph-name="lianjie" unicode="&#59422;" d="M875.298579 390.865914a42.868325 42.868325 0 0 0-61.730853 59.147582l74.577387 78.010111c55.691586 68.840665 48.581774 169.041301-16.279258 229.329246-64.733032 67.29303-160.3024 73.297388-214.329987 16.72144L449.210239 555.450491c-55.691586-68.840665-48.570138-169.041301 16.279258-229.317609a42.879961 42.879961 0 1 0-60.858127-60.450854c-96.546821 93.323552-103.691542 245.701595-16.290894 347.636047L596.666105 830.650241c89.588282 93.451551 241.756871 85.736649 338.641147-17.151984 93.800642-93.183915 100.328636-242.769234 14.999259-343.772779l-75.007932-78.859564z m0 0M162.013409 377.135017a42.868325 42.868325 0 0 0 61.730853-59.159219l-74.589023-77.998474c-55.679949-68.840665-48.570138-169.041301 16.290894-229.340883 64.733032-67.29303 160.314036-73.297388 214.329987-16.709803l208.313993 218.612165c55.691586 68.840665 48.570138 169.029665-16.279258 229.31761a42.856688 42.856688 0 0 0 0 60.427581 42.821779 42.821779 0 0 0 60.869763 0c96.546821-93.311915 103.679906-245.678322 16.279257-347.636047L440.634247-62.660947c-89.588282-93.451551-241.756871-85.725013-338.641147 17.140348C8.192458 47.663317 1.664464 197.271908 86.993841 298.275452l75.019568 78.859565z m0 0"  horiz-adv-x="1024" />

    
    <glyph glyph-name="suo" unicode="&#58907;" d="M823.371 449.501h-68.717V609.317C754.654 743.16 645.871 852 512.033 852 378.19 852 269.287 743.16 269.287 609.317v-159.816h-68.659c-33.106 0-59.937-26.828-59.937-59.937v-437.563c0-33.168 26.832-60 59.937-60h622.805c33.111 0 59.88 26.832 59.88 60V389.564c-0.005 33.111-26.827 59.937-59.943 59.937z m-277.68-290.122v-95.549c0-4.268-3.532-7.868-7.867-7.868h-51.523c-4.388 0-7.925 3.6-7.925 7.868v95.549c-24.206 12.379-40.972 37.195-40.972 66.283 0 41.155 33.413 74.631 74.573 74.631 41.217 0 74.635-33.475 74.635-74.631 0.057-29.088-16.709-53.904-40.92-66.283z m115.853 290.122H362.518V605.357c0 82.44 67.132 149.573 149.572 149.573s149.453-67.133 149.453-149.573v-155.856z"  horiz-adv-x="1024" />

    
    <glyph glyph-name="qiang" unicode="&#59412;" d="M78.7429 765.488687l0-894.837268 894.836245 0L973.579145 765.488687 78.7429 765.488687zM603.266122 609.835627l236.679467 0 42.542932-178.889273L768.166799 430.946354 739.158115 551.15925l-47.999201 0-63.321164-120.213919-100.786451 0L603.266122 609.835627zM417.440879 76.189631c-2.318812-38.745443-21.641903-56.053644-57.789171-52.02898L170.63989 24.160651l44.581358 52.02898 52.53654 0c18.635429-4.101411 28.069289 6.116301 28.297486 30.563086l25.874297 206.650547-79.406514-21.38403 17.616216 80.699973 79.450517 21.897729 16.82827 117.411083-75.65712 0 8.43409 58.729589 75.633584 0 8.40953 39.076994 125.975133 0-8.384971-39.076994 25.25929 0-8.408507-58.729589-25.232684 0-10.838859-78.159104 27.197432 6.095835-17.667382-80.70509-27.245528-6.087649L417.440879 76.189631zM693.121616 180.139122c23.452131 1.151219 30.871101 4.437056 38.488593 25.494651l31.022551 149.217487L623.480512 354.851259l-49.095161-248.123101c-7.211239-24.447808-0.052189-37.21867 21.617343-33.117258l287.249213 0-71.679529-49.474808L506.707972 24.136092c-38.489616 0-55.011918 18.379603-49.402153 55.063083l62.020542 326.123592 365.073696 0-47.001477-222.633566c-12.314467-40.911782-18.943444-57.248865-58.732659-58.094116L626.334513 124.595085l11.372002 55.570643 0-0.026606L693.121616 180.139122 693.121616 180.139122z"  horiz-adv-x="1024" />

    
    <glyph glyph-name="fengqiangbaokuan" unicode="&#58894;" d="M387.2 819.2zM387.2 819.2zM518.4 339.2c-19.2 0-32-6.4-44.8-19.2-9.6-12.8-16-32-16-54.4s6.4-38.4 16-54.4c9.6-12.8 25.6-19.2 41.6-19.2 19.2 0 32 6.4 44.8 19.2 9.6 12.8 16 32 16 54.4s-6.4 41.6-16 54.4c-9.6 12.8-25.6 19.2-41.6 19.2zM931.2 560v3.2c-19.2-35.2-41.6-64-76.8-83.2s-70.4-25.6-112-19.2v3.2c3.2 16 9.6 32 12.8 48 12.8 57.6 22.4 115.2 19.2 176-3.2 51.2-16 99.2-41.6 144-6.4 9.6-12.8 19.2-22.4 28.8-3.2-3.2-3.2-3.2-3.2-6.4-22.4-32-48-64-70.4-96-38.4-51.2-83.2-99.2-134.4-137.6-25.6-22.4-54.4-41.6-86.4-54.4-12.8-3.2-12.8-3.2-22.4 6.4-3.2 3.2-6.4 6.4-6.4 12.8-3.2 9.6-9.6 22.4-12.8 32-9.6 35.2-6.4 70.4-3.2 105.6 3.2 32 9.6 64 12.8 96-57.6-54.4-112-112-156.8-179.2-32-41.6-57.6-86.4-80-131.2-22.4-44.8-38.4-92.8-51.2-140.8-9.6-44.8-16-92.8-6.4-137.6 25.6-128 99.2-224 217.6-281.6 35.2-16 73.6-28.8 112-38.4 99.2-22.4 192 0 275.2 54.4 70.4 44.8 121.6 112 163.2 185.6 12.8 25.6 25.6 51.2 35.2 80 9.6 28.8 19.2 57.6 25.6 86.4 19.2 80 22.4 163.2 12.8 243.2zM368 153.6h-48v92.8h-96v-92.8h-44.8v220.8h48v-89.6h96v89.6h48l-3.2-220.8zM595.2 182.4c-19.2-22.4-48-32-80-32s-57.6 9.6-76.8 32c-19.2 22.4-28.8 48-28.8 80 0 35.2 9.6 64 32 86.4 19.2 22.4 48 32 80 32s57.6-9.6 76.8-32c19.2-22.4 28.8-48 28.8-80-3.2-38.4-12.8-67.2-32-86.4zM816 336h-64v-182.4h-48v182.4h-64v38.4h172.8v-38.4h3.2z"  horiz-adv-x="1024" />

    
    <glyph glyph-name="Shape" unicode="&#59413;" d="M846.976 547.456L547.648 873.728C543.616 878.08 538.624 880.512 533.952 883.584 530.816 885.76 528.32 888.576 524.928 890.112a65.6 65.6 0 0 1-54.272 0C467.2 888.576 464.64 885.76 461.632 883.584c-4.736-3.072-9.728-5.44-13.76-9.856L148.544 547.456a82.048 82.048 0 0 1 0-108.672c27.456-29.952 72.32-29.952 99.84 0L427.264 633.6v-684.736c0-42.24 31.744-76.928 70.464-76.928 38.848 0 70.592 34.624 70.592 76.928v684.8l178.88-194.944c27.392-29.952 72.32-29.952 99.84 0a82.048 82.048 0 0 1 0 108.672Z"  horiz-adv-x="1024" />

    
    <glyph glyph-name="qudaoguanli" unicode="&#59414;" d="M840.827 67.56399999999996c23.1834 0 45.3837 8.8064 61.7677 24.4326 16.3021 15.6058 25.3952 36.7821 25.3952 58.8595 0 21.9955-9.09312 43.1718-25.4771 58.7776-16.6707 15.7696-38.7482 24.535-61.7062 24.4941-22.9376 0.04096-45.0355-8.72448-61.7062-24.4941-16.3021-15.6058-25.4771-36.7821-25.3952-58.7776 0-22.0774 9.09312-43.2333 25.3952-58.8595 16.384-15.6058 38.5843-24.3507 61.7677-24.4326h-0.04096Zm-657.736 0c23.1834 0 45.3222 8.88832 61.7062 24.4941 16.3021 15.6058 25.4771 36.7821 25.3952 58.7776 0 21.9955-9.09312 43.1718-25.3952 58.7776-16.6707 15.7696-38.7482 24.535-61.7062 24.4941-22.9376 0.04096-45.0355-8.72448-61.7062-24.4941-16.3021-15.6058-25.4771-36.7821-25.3952-58.7776-0.06144-22.0774 9.03168-43.2333 25.3952-58.8595s38.5229-24.3507 61.7677-24.4326h-0.06144Zm331.059 566.313c23.1014 0 45.3222 8.74496 61.6243 24.3507 16.384 15.6058 25.5386 36.7821 25.4771 58.8595 0 21.9955-9.09312 43.1718-25.4771 58.7776-16.6502 15.7286-38.7072 24.4736-61.6243 24.4326-22.9581 0.08192-45.0765-8.66304-61.7677-24.4326-16.3021-15.6058-25.3952-36.7821-25.3952-58.8595 0-21.9955 9.15456-43.1718 25.4771-58.7776 16.3021-15.6058 38.5229-24.4326 61.7062-24.4326v0.08192ZM723.19 27.99599999999998c-64.1024-39.6493-138.035-60.5389-213.422-60.3136-74.4038-0.22528-147.415 20.1114-210.985 58.7776 36.8845 30.8019 58.2861 76.3085 58.5114 124.375 0 91.9552-78.0083 166.564-174.203 166.564-21.7088 0.04096-43.2333-3.85024-63.5699-11.4483-16.384 157.901 73.5027 308.429 224.236 375.951 16.855-75.1002 86.7533-131.379 170.394-131.379 82.2477 0 151.163 54.4768 169.492 127.775 145.756-69.12 231.813-216.535 216.535-370.811-19.0874 6.59456-39.1373 9.95328-59.3306 9.9328-96.256 0-174.264-74.5472-174.264-166.564-0.02048-48.599 21.7702-92.3853 56.6067-122.86Z"  horiz-adv-x="1024" />

    
    <glyph glyph-name="gengduo" unicode="&#58891;" d="M223.71328 479.968256c-53.046272 0-95.968256-42.968064-95.968256-95.968256 0-52.99712 42.921984-95.968256 95.968256-95.968256 52.95104 0 95.968256 42.971136 95.968256 95.968256C319.680512 436.999168 276.66432 479.968256 223.71328 479.968256zM511.617024 479.968256c-53.045248 0-95.968256-42.968064-95.968256-95.968256 0-52.99712 42.923008-95.968256 95.968256-95.968256 52.95104 0 95.968256 42.971136 95.968256 95.968256C607.58528 436.999168 564.568064 479.968256 511.617024 479.968256zM799.520768 479.968256c-53.045248 0-95.968256-42.968064-95.968256-95.968256 0-52.99712 42.923008-95.968256 95.968256-95.968256 52.95104 0 95.968256 42.971136 95.968256 95.968256C895.489024 436.999168 852.471808 479.968256 799.520768 479.968256z"  horiz-adv-x="1024" />

    
    </font>
</defs>
</svg>
